<svg width="43" height="42" viewBox="0 0 43 42" fill="none" xmlns="http://www.w3.org/2000/svg">
<path d="M21.8218 41.9191C16.9589 41.9223 12.2447 40.2878 8.47913 37.293C4.71356 34.2982 2.12861 30.1276 1.16294 25.489C0.197272 20.8503 0.910368 16.0293 3.18122 11.8442C5.45207 7.65899 9.14079 4.36744 13.6214 2.52807C18.7686 0.411659 24.5689 0.372026 29.7462 2.41789C34.9235 4.46375 39.0536 8.42753 41.2282 13.4372C43.4027 18.4469 43.4434 24.0922 41.3414 29.1311C39.2393 34.17 35.1667 38.1898 30.0195 40.3063C27.4262 41.3752 24.638 41.9237 21.8218 41.9191ZM25.6667 21.2336C26.7705 21.2336 28.085 21.7811 28.085 24.3892V31.8566H32.8578V23.8507C32.973 22.131 32.4115 20.4331 31.2873 19.1017C30.781 18.591 30.1695 18.1904 29.4928 17.9261C28.8161 17.6617 28.0897 17.5397 27.3611 17.568C26.345 17.54 25.3449 17.8183 24.4975 18.3647C23.9195 18.7695 23.4305 19.2825 23.059 19.8737V17.8963H18.2849C18.3475 19.1938 18.2849 31.7281 18.2849 31.854H23.059V24.0583C23.0382 23.6745 23.0916 23.2903 23.2163 22.9256C23.3986 22.4749 23.6943 22.076 24.0762 21.7656C24.5248 21.4109 25.0875 21.2216 25.6653 21.231L25.6667 21.2336ZM10.8684 17.8976V31.854H15.6412V17.895L10.8684 17.8976ZM13.2894 11.1672C12.9492 11.1391 12.6067 11.1796 12.2832 11.286C11.9598 11.3925 11.6624 11.5627 11.4095 11.786C11.1567 12.0094 10.9538 12.281 10.8136 12.584C10.6734 12.887 10.5989 13.2149 10.5946 13.5472C10.5904 13.8795 10.6566 14.2091 10.7891 14.5154C10.9215 14.8217 11.1174 15.0981 11.3645 15.3275C11.6116 15.5568 11.9046 15.7342 12.2252 15.8484C12.5459 15.9626 12.8873 16.0113 13.2281 15.9915H13.2588C13.9861 16.0172 14.6948 15.7648 15.2332 15.2882C15.4669 15.066 15.6515 14.7997 15.7758 14.5057C15.9 14.2116 15.9613 13.8959 15.9558 13.578C15.957 13.2452 15.8874 12.9158 15.7513 12.6105C15.6152 12.3053 15.4156 12.0307 15.1651 11.8042C14.9146 11.5777 14.6186 11.4042 14.2958 11.2946C13.973 11.1849 13.6303 11.1415 13.2894 11.1672Z" fill="white"/>
</svg>
