<svg width="43" height="42" viewBox="0 0 43 42" fill="none" xmlns="http://www.w3.org/2000/svg">
<path d="M21.676 41.9191C16.8132 41.9223 12.0989 40.2878 8.33337 37.293C4.56781 34.2982 1.98286 30.1276 1.01719 25.489C0.05152 20.8503 0.764617 16.0293 3.03547 11.8442C5.30632 7.65899 8.99504 4.36744 13.4756 2.52807C18.6229 0.411659 24.4232 0.372026 29.6004 2.41789C34.7777 4.46375 38.9079 8.42753 41.0824 13.4372C43.2569 18.4469 43.2977 24.0922 41.1956 29.1311C39.0936 34.17 35.021 38.1898 29.8737 40.3063C27.2805 41.3752 24.4922 41.9237 21.676 41.9191ZM21.676 10.4859H21.1894C18.611 10.4859 18.2018 10.4989 17.0459 10.5508C16.1142 10.5703 15.1926 10.7422 14.3195 11.0595C13.5732 11.3402 12.8953 11.7696 12.3294 12.3201C11.7635 12.8707 11.322 13.5303 11.0333 14.2566C10.7064 15.1061 10.5297 16.0032 10.5107 16.9101C10.456 18.1039 10.4427 18.4957 10.4427 21.4191C10.4427 24.3425 10.456 24.733 10.5107 25.9268C10.5312 26.8335 10.7079 27.7304 11.0333 28.5803C11.322 29.3065 11.7634 29.9661 12.329 30.5169C12.8946 31.0676 13.5722 31.4974 14.3182 31.7787C15.1914 32.0953 16.113 32.2668 17.0446 32.2861C18.2538 32.3393 18.6537 32.3523 21.676 32.3523C24.6983 32.3523 25.0983 32.3393 26.3075 32.2861C27.2395 32.2669 28.1615 32.0954 29.0352 31.7787C29.781 31.4971 30.4584 31.0672 31.024 30.5165C31.5896 29.9658 32.031 29.3064 32.3201 28.5803C32.6447 27.7302 32.8214 26.8334 32.8427 25.9268C32.8974 24.733 32.9107 24.3412 32.9107 21.4191C32.9107 18.497 32.8974 18.1039 32.8427 16.9101C32.8216 16.0035 32.645 15.1066 32.3201 14.2566C32.0315 13.5301 31.5901 12.8702 31.0242 12.3194C30.4583 11.7686 29.7803 11.339 29.0338 11.0582C28.1598 10.7412 27.2373 10.5693 26.3048 10.5495C25.0956 10.495 24.6957 10.4834 21.676 10.4834V10.4859Z" fill="white"/>
<path d="M21.868 30.3748C18.8791 30.3748 18.5218 30.3631 17.3352 30.3112C16.6227 30.3024 15.917 30.1747 15.2488 29.9336C14.7609 29.7584 14.3195 29.4791 13.957 29.1162C13.5838 28.7641 13.2967 28.3348 13.1171 27.8601C12.8694 27.2103 12.7386 26.5238 12.7304 25.8308C12.6691 24.6824 12.6584 24.3373 12.6584 21.4113C12.6584 18.4853 12.6691 18.1415 12.7238 16.9997C12.7321 16.3062 12.8629 15.6193 13.1104 14.969C13.2894 14.4925 13.5764 14.0614 13.9503 13.7078C14.3129 13.3447 14.7543 13.065 15.2421 12.889C15.9091 12.6484 16.6134 12.5207 17.3246 12.5114C18.3764 12.466 18.7711 12.4504 20.8602 12.4504C20.9561 12.4504 21.0601 12.4504 21.1521 12.4504H21.8667C24.8903 12.4504 25.2423 12.4608 26.3995 12.5127C27.112 12.5209 27.8177 12.6482 28.4859 12.889C28.9736 13.0639 29.4147 13.3433 29.7764 13.7065C30.1495 14.0594 30.4369 14.489 30.6177 14.9638C30.8644 15.6139 30.9952 16.3002 31.0043 16.9932C31.0576 18.1402 31.0696 18.4853 31.0696 21.4048C31.0696 24.3243 31.059 24.6747 31.0043 25.8165C30.9952 26.5095 30.8645 27.1958 30.6177 27.8459C30.4305 28.3176 30.1441 28.7459 29.7767 29.1035C29.4094 29.461 28.9692 29.7398 28.4846 29.922C27.8167 30.1639 27.1108 30.2916 26.3982 30.2995C25.2143 30.3631 24.857 30.3748 21.868 30.3748ZM21.868 15.802C20.727 15.8018 19.6116 16.1308 18.6628 16.7476C17.714 17.3644 16.9744 18.2411 16.5375 19.267C16.1007 20.2929 15.9863 21.4219 16.2087 22.5111C16.4312 23.6002 16.9805 24.6008 17.7872 25.3861C18.5939 26.1714 19.6218 26.7063 20.7408 26.923C21.8598 27.1398 23.0198 27.0287 24.074 26.6038C25.1281 26.1788 26.0291 25.4592 26.6631 24.5359C27.297 23.6126 27.6354 22.527 27.6354 21.4165C27.6336 19.9282 27.0254 18.5013 25.9443 17.4488C24.8631 16.3963 23.3972 15.8041 21.868 15.802ZM27.8673 14.2683C27.6008 14.2688 27.3404 14.3462 27.1191 14.4907C26.8978 14.6353 26.7254 14.8404 26.6239 15.0802C26.5223 15.32 26.4961 15.5838 26.5485 15.8381C26.6009 16.0925 26.7296 16.326 26.9183 16.5091C27.1071 16.6923 27.3474 16.8168 27.6088 16.8671C27.8703 16.9174 28.1412 16.891 28.3873 16.7915C28.6334 16.6919 28.8437 16.5236 28.9915 16.3077C29.1393 16.0919 29.2181 15.8382 29.2178 15.5788C29.2178 15.4055 29.1826 15.2338 29.114 15.0738C29.0454 14.9138 28.9449 14.7686 28.8184 14.6466C28.6918 14.5246 28.5416 14.4283 28.3766 14.3631C28.2115 14.298 28.0348 14.2653 27.8567 14.267L27.8673 14.2683Z" fill="white"/>
<path d="M21.8679 17.7717C22.6086 17.7717 23.3326 17.9855 23.9485 18.386C24.5643 18.7865 25.0443 19.3557 25.3278 20.0217C25.6112 20.6877 25.6854 21.4206 25.5409 22.1276C25.3964 22.8346 25.0397 23.4841 24.516 23.9938C23.9922 24.5036 23.325 24.8507 22.5985 24.9913C21.8721 25.132 21.1191 25.0598 20.4348 24.7839C19.7505 24.5081 19.1657 24.0409 18.7542 23.4415C18.3427 22.8421 18.123 22.1374 18.123 21.4165C18.123 20.4499 18.5176 19.5228 19.2199 18.8393C19.9222 18.1557 20.8747 17.7717 21.8679 17.7717Z" fill="white"/>
</svg>
