<svg width="95" height="77" viewBox="0 0 95 77" fill="none" xmlns="http://www.w3.org/2000/svg">
<path d="M6.36748 18.8978C5.96058 19.5228 5.68174 20.2223 5.54708 20.9558C5.41241 21.6894 5.42462 22.4423 5.58299 23.1711C10.5863 46.2852 33.4653 61.0204 56.5858 56.0184C64.6332 54.2649 72.0075 50.2365 77.8314 44.4126C83.6553 38.5887 87.6837 31.2144 89.4372 23.167C89.7521 21.6947 89.4691 20.1575 88.6507 18.8938C87.8322 17.63 86.5453 16.7432 85.0729 16.4283C83.6006 16.1134 82.0635 16.3963 80.7997 17.2148C79.536 18.0332 78.6491 19.3202 78.3342 20.7925C76.8046 27.8302 72.9129 34.1325 67.3058 38.6523C61.6988 43.1721 54.7139 45.6373 47.512 45.638C40.31 45.6388 33.3246 43.1752 27.7166 38.6566C22.1085 34.138 18.2155 27.8365 16.6843 20.7992C16.4496 19.7011 15.8944 18.6972 15.0892 17.9145C14.2839 17.1318 13.2646 16.6055 12.1602 16.402C11.0559 16.1986 9.91596 16.3272 8.88464 16.7715C7.85333 17.2158 6.97692 17.956 6.36623 18.8984" fill="#86ECE8"/>
<path d="M3.76784 71.9962C4.17355 72.1646 4.59622 72.2888 5.02851 72.3668C19.0702 74.8342 33.3023 76.057 47.5591 76.0212C61.7833 76.0518 75.9829 74.836 89.9949 72.3877C90.7821 72.2449 91.5335 71.9485 92.2061 71.5153C92.8788 71.0822 93.4595 70.5208 93.9152 69.8632C94.3709 69.2056 94.6926 68.4648 94.862 67.6828C95.0313 66.9009 95.045 66.0933 94.9022 65.3061C94.7595 64.5189 94.463 63.7675 94.0299 63.0949C93.5967 62.4222 93.0354 61.8415 92.3778 61.3858C91.7202 60.9301 90.9793 60.6084 90.1974 60.439C89.4155 60.2697 88.6078 60.256 87.8206 60.3987C75.2775 62.6669 61.7344 63.8175 47.5645 63.8175C33.3493 63.8175 19.7691 62.6602 7.20151 60.3778C5.72088 60.1032 4.191 60.3868 2.90719 61.1739C1.62339 61.961 0.676675 63.1958 0.249818 64.6399C-0.177039 66.0841 -0.0537759 67.6351 0.595798 68.9937C1.24537 70.3523 2.37521 71.4221 3.76722 71.9966" fill="#86ECBD"/>
<path d="M40.3394 1.45064C37.0473 2.84316 34.2309 5.1626 32.233 8.12668C30.8841 10.117 29.9422 12.3546 29.4617 14.7104C28.4783 19.4971 29.4357 24.4784 32.1235 28.5595C34.8113 32.6406 39.0096 35.4875 43.7956 36.4744C45.0172 36.7229 46.2606 36.8482 47.5071 36.8484H47.5164C48.7629 36.8481 50.0063 36.7227 51.2279 36.4741C54.7812 35.7432 58.0397 33.9796 60.5948 31.4044C63.1499 28.8292 64.8878 25.5569 65.5907 21.998C66.2936 18.439 65.9301 14.7518 64.5459 11.3985C63.1618 8.04526 60.8184 5.17528 57.8097 3.14844C55.8193 1.79939 53.5815 0.857731 51.2254 0.377773C47.5719 -0.373138 43.7766 0.000931342 40.34 1.45064M47.5176 11.2212C49.4156 11.233 51.232 11.995 52.5702 13.341C53.9085 14.6869 54.66 16.5076 54.6609 18.4057C54.6617 20.3037 53.9118 22.125 52.5747 23.4722C51.2376 24.8193 49.422 25.583 47.524 25.5964H47.5154C45.6174 25.585 43.8009 24.8233 42.4623 23.4776C41.1238 22.1318 40.3719 20.3113 40.3708 18.4132C40.3696 16.5152 41.1192 14.6937 42.4561 13.3463C43.793 11.9989 45.6085 11.235 47.5065 11.2212H47.5176Z" fill="#86CDEC"/>
</svg>
