<svg width="16" height="16" viewBox="0 0 16 16" fill="none" xmlns="http://www.w3.org/2000/svg">
<g id="Ellipse 185">
<mask id="path-1-inside-1_2262_545" fill="white">
<path d="M16 8C16 6.21737 15.4046 4.48581 14.3083 3.08013C13.212 1.67446 11.6777 0.675207 9.94873 0.240975C8.21979 -0.193257 6.39535 -0.0375918 4.76498 0.683265C3.1346 1.40412 1.79169 2.64887 0.949382 4.21995C0.107078 5.79103 -0.186361 7.59843 0.115637 9.35529C0.417635 11.1122 1.29777 12.7178 2.61635 13.9175C3.93493 15.1171 5.6164 15.842 7.39391 15.977C9.17142 16.1121 10.9431 15.6496 12.4278 14.6629L11.7995 13.7175C10.5255 14.5641 9.00519 14.961 7.47991 14.8451C5.95464 14.7292 4.51176 14.1072 3.38029 13.0778C2.24882 12.0484 1.49357 10.6705 1.23443 9.16298C0.975285 7.65541 1.22709 6.10448 1.94987 4.75634C2.67265 3.40819 3.825 2.34008 5.22403 1.72151C6.62305 1.10294 8.1886 0.969368 9.6722 1.34198C11.1558 1.7146 12.4724 2.57205 13.4132 3.77826C14.3539 4.98447 14.8648 6.47033 14.8648 8H16Z"/>
</mask>
<path d="M16 8C16 6.21737 15.4046 4.48581 14.3083 3.08013C13.212 1.67446 11.6777 0.675207 9.94873 0.240975C8.21979 -0.193257 6.39535 -0.0375918 4.76498 0.683265C3.1346 1.40412 1.79169 2.64887 0.949382 4.21995C0.107078 5.79103 -0.186361 7.59843 0.115637 9.35529C0.417635 11.1122 1.29777 12.7178 2.61635 13.9175C3.93493 15.1171 5.6164 15.842 7.39391 15.977C9.17142 16.1121 10.9431 15.6496 12.4278 14.6629L11.7995 13.7175C10.5255 14.5641 9.00519 14.961 7.47991 14.8451C5.95464 14.7292 4.51176 14.1072 3.38029 13.0778C2.24882 12.0484 1.49357 10.6705 1.23443 9.16298C0.975285 7.65541 1.22709 6.10448 1.94987 4.75634C2.67265 3.40819 3.825 2.34008 5.22403 1.72151C6.62305 1.10294 8.1886 0.969368 9.6722 1.34198C11.1558 1.7146 12.4724 2.57205 13.4132 3.77826C14.3539 4.98447 14.8648 6.47033 14.8648 8H16Z" stroke="white" stroke-width="2" mask="url(#path-1-inside-1_2262_545)"/>
</g>
</svg>
