<svg width="215" height="225" viewBox="0 0 215 225" fill="none" xmlns="http://www.w3.org/2000/svg">
<g id="Logo">
<g id="Group 3">
<path id="Caminho 1316" d="M70.3223 6.06548C70.2515 5.92235 70.2151 5.76467 70.2158 5.605C70.2166 5.44533 70.2545 5.28806 70.3266 5.1456C70.3987 5.00314 70.503 4.87948 70.6313 4.78434C70.7595 4.6892 70.9081 4.62518 71.0654 4.59748L72.1375 4.24541C72.2807 4.17474 72.4384 4.13838 72.598 4.13917C72.7577 4.13997 72.915 4.17787 73.0574 4.24997C73.1999 4.32206 73.3236 4.42636 73.4188 4.55455C73.514 4.68273 73.5781 4.8313 73.6059 4.98852L80.6371 26.4329C80.7078 26.5761 80.7441 26.7338 80.7433 26.8935C80.7425 27.0532 80.7045 27.2104 80.6324 27.3529C80.5602 27.4953 80.4559 27.6191 80.3277 27.7142C80.1994 27.8094 80.0508 27.8735 79.8936 27.9013L78.8214 28.253C78.6783 28.3237 78.5207 28.36 78.361 28.3592C78.2014 28.3584 78.0441 28.3205 77.9017 28.2484C77.7592 28.1763 77.6356 28.072 77.5404 27.9438C77.4453 27.8156 77.3812 27.6671 77.3535 27.5099L70.3223 6.06548Z" fill="white"/>
<path id="Caminho 1317" d="M83.7807 25.0951C83.7289 24.8554 83.722 24.608 83.7604 24.3658C83.8194 24.1287 83.9121 23.9013 84.0359 23.6907L90.5708 11.7378C90.7158 11.4742 90.8568 11.2226 90.9938 10.9833C91.1307 10.744 91.2566 10.543 91.3714 10.3804L91.7438 9.84967L91.7324 9.78032C91.5993 9.82953 91.4617 9.86567 91.3216 9.88815C91.1478 9.94514 90.9698 9.98817 90.7891 10.0169L90.042 10.1474L82.9565 11.3877C82.8047 11.4373 82.6435 11.4508 82.4856 11.4272C82.3277 11.4036 82.1774 11.3435 82.0468 11.2517C81.9161 11.1599 81.8086 11.039 81.7328 10.8984C81.657 10.7579 81.615 10.6016 81.6101 10.442L81.5068 9.85125C81.4573 9.69949 81.4438 9.53827 81.4673 9.38038C81.4909 9.22249 81.551 9.07232 81.6427 8.94167C81.7344 8.81101 81.8553 8.7035 81.9958 8.62769C82.1363 8.55187 82.2925 8.50978 82.4521 8.50483L94.6437 6.37108C95.4076 6.23764 95.8465 6.49507 95.9605 7.14336L96.0087 7.42094C96.0603 7.66073 96.0672 7.908 96.029 8.15029C95.9697 8.38711 95.8769 8.61429 95.7535 8.82494L89.2243 20.8139C89.0793 21.0785 88.9379 21.324 88.7981 21.5509C88.6583 21.7778 88.5319 21.9736 88.4172 22.1365C88.2839 22.3273 88.1478 22.506 88.012 22.6733L88.0238 22.743C88.1629 22.7164 88.3 22.6803 88.4342 22.6348C88.5736 22.6108 88.7464 22.5747 88.9525 22.5266C89.1586 22.4785 89.4122 22.4281 89.7134 22.3755L97.4929 21.0141C98.2576 20.879 98.7046 21.1827 98.8337 21.925L98.9427 22.5502C98.9922 22.7019 99.0057 22.8631 98.9821 23.021C98.9585 23.1789 98.8985 23.3292 98.8068 23.4598C98.715 23.5905 98.5942 23.6981 98.4537 23.7739C98.3132 23.8498 98.157 23.892 97.9974 23.897L85.1461 26.1458C84.3814 26.2808 83.9425 26.0234 83.8293 25.3735L83.7807 25.0951Z" fill="white"/>
<path id="Caminho 1318" d="M100.265 18.6979C100.251 17.9153 100.425 17.1408 100.774 16.4403C101.124 15.7398 101.637 15.1339 102.27 14.6744C102.886 14.2266 103.563 13.8695 104.28 13.6141C105.033 13.3419 105.809 13.1419 106.6 13.0168C107.378 12.8916 108.162 12.8103 108.95 12.7737C109.714 12.7393 110.402 12.7271 111.013 12.7369L111.93 12.7514L111.938 12.2927C111.964 11.6627 111.873 11.0335 111.668 10.437C111.502 9.96752 111.224 9.54544 110.858 9.20722C110.506 8.89394 110.088 8.66419 109.635 8.53505C109.142 8.39474 108.633 8.32126 108.122 8.31663C107.312 8.28961 106.504 8.40792 105.735 8.66592C105.166 8.85732 104.614 9.09599 104.084 9.37945C103.397 9.69792 102.87 9.54844 102.504 8.93093L102.23 8.43257C101.865 7.72133 102.003 7.19453 102.643 6.85229C103.38 6.47508 104.146 6.15724 104.934 5.90175C106.07 5.54336 107.26 5.38388 108.45 5.43019C110.683 5.46665 112.401 6.08788 113.604 7.29397C114.807 8.50007 115.39 10.2433 115.353 12.5237L115.191 22.6428C115.211 22.8012 115.194 22.9621 115.141 23.1127C115.088 23.2633 115.001 23.3995 114.886 23.5105C114.771 23.6216 114.632 23.7044 114.48 23.7525C114.328 23.8006 114.167 23.8125 114.009 23.7874L113.127 23.7733C112.969 23.7932 112.808 23.776 112.657 23.723C112.507 23.6701 112.37 23.5828 112.259 23.4681C112.148 23.3534 112.066 23.2145 112.017 23.0622C111.969 22.91 111.957 22.7485 111.983 22.5909L112 21.533C112.002 21.3689 112.005 21.2157 112.007 21.0747C112.007 20.9561 112.02 20.8379 112.048 20.7226C112.073 20.6294 112.098 20.5354 112.123 20.4418H112.052C111.699 21.1276 111.236 21.7515 110.682 22.289C110.141 22.7952 109.528 23.2184 108.863 23.5451C108.025 23.9428 107.101 24.1278 106.174 24.0836C105.408 24.0725 104.649 23.9412 103.923 23.6946C103.226 23.4631 102.579 23.0992 102.019 22.6229C101.476 22.1591 101.034 21.5876 100.723 20.9446C100.393 20.2428 100.236 19.4726 100.265 18.6979M103.725 18.4718C103.725 19.2069 104.011 19.9132 104.522 20.4418C105.064 21.0498 105.888 21.3629 106.994 21.381C107.702 21.404 108.405 21.2389 109.029 20.9029C109.628 20.5771 110.152 20.129 110.567 19.5877C110.989 19.0381 111.321 18.4244 111.549 17.77C111.777 17.1324 111.902 16.4619 111.916 15.7846L111.929 15.0087L111.012 14.9942C110.377 14.9836 109.648 15.0011 108.824 15.0468C108.021 15.0885 107.226 15.2235 106.454 15.4491C105.743 15.6474 105.086 16.0046 104.533 16.4937C104.265 16.7471 104.054 17.0547 103.915 17.3961C103.776 17.7374 103.711 18.1046 103.725 18.473" fill="white"/>
<path id="Caminho 1319" d="M123.947 0.945989C123.96 0.786811 124.009 0.632735 124.091 0.495993C124.174 0.359251 124.287 0.24358 124.422 0.158175C124.557 0.0727698 124.71 0.019971 124.869 0.00395544C125.028 -0.0120602 125.188 0.00922058 125.337 0.0659795L126.404 0.30537C127.137 0.470145 127.419 0.931019 127.25 1.6879L125.665 8.74093C125.613 8.97054 125.563 9.16992 125.513 9.33902C125.463 9.50811 125.411 9.65908 125.357 9.79198C125.305 9.92386 125.262 10.0593 125.229 10.1972L125.298 10.2126C125.758 9.68476 126.309 9.24526 126.927 8.91593C127.567 8.59602 128.245 8.3598 128.946 8.21299C129.856 8.0336 130.795 8.05936 131.694 8.28837C132.778 8.51683 133.796 8.98653 134.674 9.66269C135.503 10.3088 136.182 11.1273 136.665 12.0614C137.169 13.0648 137.47 14.158 137.55 15.2782C137.648 16.5529 137.549 17.8349 137.257 19.0796C136.986 20.3688 136.501 21.6036 135.821 22.7323C135.231 23.7116 134.45 24.5623 133.524 25.234C132.638 25.8693 131.626 26.3074 130.556 26.519C129.486 26.7306 128.383 26.7108 127.321 26.4608C126.421 26.2883 125.573 25.9122 124.84 25.3612C124.278 24.9231 123.78 24.4095 123.358 23.8352C122.947 23.2541 122.652 22.5989 122.49 21.9058L122.422 21.8903C122.401 21.9834 122.391 22.0787 122.394 22.174C122.386 22.4342 122.352 22.6928 122.293 22.9463L122.1 23.8064C121.95 24.4718 121.497 24.7193 120.74 24.5491L119.88 24.356C119.721 24.3433 119.567 24.2938 119.43 24.2113C119.293 24.1288 119.177 24.0157 119.092 23.8807C119.007 23.7458 118.954 23.5928 118.938 23.4339C118.922 23.275 118.943 23.1146 119 22.9653L123.947 0.945989ZM123.93 16.1404C123.752 16.9222 123.681 17.7247 123.72 18.5257C123.751 19.2781 123.908 20.02 124.184 20.7206C124.446 21.3822 124.857 21.9743 125.386 22.4503C125.966 22.9545 126.667 23.2983 127.421 23.4478C128.095 23.6023 128.795 23.6121 129.474 23.4766C130.157 23.3403 130.802 23.0543 131.361 22.6392C131.972 22.1779 132.488 21.6022 132.88 20.9442C133.347 20.1595 133.68 19.3028 133.866 18.4091C134.07 17.5457 134.142 16.6563 134.078 15.7713C134.026 15.0136 133.831 14.2726 133.503 13.5877C133.198 12.9653 132.759 12.4178 132.219 11.984C131.67 11.546 131.027 11.241 130.341 11.0926C129.694 10.944 129.024 10.922 128.368 11.0278C127.703 11.1397 127.071 11.3976 126.518 11.7831C125.891 12.2266 125.363 12.7951 124.968 13.4528C124.473 14.2833 124.122 15.1918 123.93 16.1396" fill="white"/>
<path id="Caminho 1320" d="M140.464 20.293C141 19.0942 141.761 18.0089 142.705 17.0957C143.548 16.2796 144.546 15.639 145.639 15.2108C146.708 14.8038 147.849 14.6243 148.991 14.6841C150.204 14.7475 151.392 15.0477 152.489 15.5677C153.517 16.0237 154.44 16.6897 155.196 17.5228C155.871 18.2739 156.367 19.1683 156.646 20.1386C156.918 21.1325 156.992 22.1705 156.862 23.1929C156.716 24.3439 156.386 25.464 155.886 26.511C155.823 26.6538 155.732 26.7828 155.619 26.8903C155.506 26.9979 155.372 27.0821 155.226 27.1378C155.077 27.1968 154.916 27.2234 154.756 27.2159C154.595 27.2083 154.438 27.1667 154.294 27.094L143.482 22.0799C143.135 22.8987 142.951 23.7779 142.943 24.6674C142.938 25.4578 143.09 26.2416 143.389 26.9733C143.678 27.6723 144.104 28.306 144.643 28.8371C145.195 29.3807 145.838 29.8235 146.543 30.1455C147.334 30.5344 148.197 30.7563 149.078 30.7971C149.724 30.8268 150.371 30.7813 151.007 30.6613C151.804 30.617 152.23 30.9568 152.283 31.6807L152.349 32.2941C152.403 32.596 152.335 32.9069 152.161 33.1592C152.065 33.2757 151.945 33.3709 151.81 33.4387C151.675 33.5065 151.527 33.5454 151.376 33.5531C150.504 33.7141 149.614 33.7588 148.73 33.6864C148.145 33.6365 147.565 33.5428 146.994 33.406C145.059 32.9288 143.3 31.9107 141.922 30.4708C141.104 29.5889 140.467 28.5542 140.05 27.4259C139.642 26.3055 139.467 25.1134 139.537 23.9231C139.608 22.6638 139.923 21.4303 140.463 20.2906M153.227 24.1119C153.846 22.6635 153.946 21.401 153.525 20.3246C153.328 19.8037 153.03 19.3273 152.647 18.9229C152.264 18.5184 151.804 18.1941 151.295 17.9689C150.17 17.4204 148.88 17.3146 147.681 17.6723C146.389 18.0876 145.283 18.9439 144.558 20.0916L153.227 24.1119Z" fill="white"/>
<path id="Caminho 1321" d="M167.144 17.3876C167.212 17.2434 167.313 17.117 167.439 17.0186C167.565 16.9202 167.712 16.8525 167.868 16.8207C168.025 16.7889 168.186 16.7939 168.341 16.8354C168.495 16.8769 168.637 16.9537 168.756 17.0598L169.668 17.6635C169.812 17.732 169.939 17.833 170.037 17.9588C170.135 18.0845 170.203 18.2314 170.235 18.3879C170.267 18.5443 170.262 18.7061 170.22 18.8602C170.179 19.0144 170.102 19.1568 169.996 19.2761L159.813 34.652C159.58 34.9827 159.397 35.3456 159.269 35.7294C159.181 35.9872 159.159 36.2626 159.203 36.5312C159.24 36.7399 159.327 36.9363 159.458 37.103C159.579 37.253 159.714 37.3916 159.861 37.5171C160.04 37.6826 160.17 37.8934 160.239 38.1273C160.266 38.2576 160.264 38.3923 160.233 38.5217C160.202 38.651 160.143 38.772 160.06 38.8761L159.593 39.5815C159.435 39.8554 159.184 40.0642 158.886 40.1707C158.718 40.2011 158.546 40.1943 158.381 40.1508C158.216 40.1073 158.062 40.0282 157.932 39.919C157.5 39.6271 157.096 39.2961 156.726 38.93C156.315 38.5337 156 38.05 155.802 37.515C155.592 36.9041 155.538 36.2503 155.645 35.6132C155.818 34.7114 156.187 33.8588 156.727 33.116L167.144 17.3876Z" fill="white"/>
<path id="Caminho 1322" d="M176.093 23.7017C176.175 23.5647 176.288 23.4488 176.422 23.363C176.557 23.2773 176.71 23.2241 176.869 23.2076C177.028 23.1912 177.188 23.2119 177.337 23.2682C177.487 23.3245 177.621 23.4147 177.73 23.5318L178.578 24.2207C178.715 24.3028 178.831 24.4156 178.917 24.5503C179.002 24.685 179.056 24.8377 179.072 24.9965C179.089 25.1554 179.068 25.3158 179.011 25.4652C178.955 25.6146 178.865 25.7488 178.747 25.8572L167.119 40.1716C166.854 40.478 166.636 40.8214 166.47 41.1909C166.358 41.4393 166.309 41.7113 166.327 41.9831C166.343 42.1943 166.412 42.3981 166.526 42.5763C166.632 42.7376 166.753 42.8888 166.887 43.0281C167.049 43.21 167.158 43.4325 167.203 43.6719C167.218 43.8044 167.203 43.9385 167.16 44.0645C167.116 44.1906 167.046 44.3056 166.953 44.4013L166.419 45.0585C166.235 45.3154 165.965 45.4985 165.658 45.5755C165.488 45.5898 165.317 45.5666 165.158 45.5074C164.998 45.4482 164.853 45.3546 164.733 45.2331C164.332 44.9005 163.962 44.5317 163.629 44.1314C163.259 43.6966 162.992 43.1842 162.847 42.6322C162.697 42.004 162.707 41.3482 162.875 40.7246C163.135 39.8439 163.586 39.0311 164.195 38.3442L176.093 23.7017Z" fill="white"/>
<path id="Caminho 1323" d="M170.262 43.0307C170.855 42.4567 171.579 42.0367 172.372 41.8075C173.085 41.6138 173.832 41.5807 174.56 41.7106C175.309 41.8477 176.034 42.0918 176.714 42.4355C177.43 42.7933 178.11 43.2183 178.745 43.7046C179.372 44.1817 179.972 44.6938 180.541 45.2386C181.093 45.7685 181.576 46.2585 181.99 46.7082L182.612 47.3824L182.948 47.0721C183.423 46.657 183.816 46.1569 184.108 45.5975C184.333 45.1538 184.448 44.6619 184.441 44.1641C184.425 43.693 184.304 43.2315 184.085 42.814C183.847 42.3609 183.549 41.9415 183.2 41.5672C182.662 40.9618 182.019 40.4579 181.302 40.0794C180.771 39.7986 180.218 39.5629 179.647 39.3748C178.943 39.096 178.688 38.6112 178.883 37.9205L179.056 37.3788C179.32 36.6244 179.797 36.3611 180.486 36.5891C181.267 36.863 182.026 37.1989 182.755 37.5936C183.797 38.1701 184.733 38.9219 185.52 39.8161C187.033 41.4589 187.766 43.1321 187.721 44.8355C187.676 46.5388 186.814 48.1629 185.138 49.7078L177.693 56.563C177.592 56.6868 177.463 56.7853 177.318 56.8508C177.172 56.9163 177.013 56.947 176.854 56.9404C176.694 56.9339 176.538 56.8903 176.399 56.813C176.259 56.7358 176.139 56.627 176.049 56.4954L175.452 55.8471C175.328 55.7461 175.23 55.6178 175.164 55.4721C175.099 55.3265 175.068 55.1676 175.075 55.0081C175.081 54.8486 175.125 54.6928 175.202 54.553C175.279 54.4133 175.388 54.2934 175.519 54.2029L176.298 53.4861L176.635 53.1758C176.721 53.0938 176.816 53.0223 176.919 52.963L177.174 52.8236L177.126 52.7718C176.386 52.9881 175.615 53.0829 174.844 53.0522C174.104 53.0095 173.374 52.8575 172.679 52.6012C171.813 52.268 171.042 51.7261 170.436 51.0238C169.916 50.4613 169.487 49.8204 169.166 49.1247C168.853 48.4597 168.67 47.7404 168.629 47.0064C168.592 46.2931 168.702 45.5798 168.954 44.9112C169.235 44.189 169.685 43.5443 170.266 43.0311M172.815 45.3812C172.282 45.8881 171.967 46.5821 171.937 47.3168C171.87 48.1288 172.21 48.9413 172.959 49.7543C173.431 50.2833 174.035 50.6783 174.708 50.8995C175.357 51.1092 176.043 51.18 176.721 51.1073C177.411 51.0343 178.084 50.8513 178.715 50.5655C179.335 50.2915 179.907 49.9189 180.408 49.4622L180.978 48.9355L180.358 48.2612C179.927 47.7944 179.412 47.2783 178.812 46.7127C178.228 46.1603 177.582 45.6774 176.887 45.2735C176.253 44.8949 175.541 44.665 174.806 44.6012C174.438 44.5817 174.07 44.6411 173.726 44.7754C173.383 44.9097 173.072 45.1159 172.815 45.38" fill="white"/>
<path id="Caminho 1324" d="M194.818 60.8678C196.384 60.1446 198.075 59.7306 199.799 59.6486C201.415 59.5708 203.031 59.8158 204.552 60.369C206.072 60.9333 207.463 61.8002 208.639 62.9173C209.907 64.1259 210.922 65.5754 211.623 67.181C212.032 68.0684 212.346 68.9962 212.561 69.9492C212.739 70.7437 212.857 71.5504 212.913 72.3625C212.958 73.0168 212.95 73.6735 212.889 74.3264C212.844 74.8088 212.769 75.288 212.665 75.7612C212.502 76.4281 212.038 76.7146 211.274 76.6206L210.442 76.4921C209.72 76.3787 209.413 75.9243 209.519 75.1291C209.562 74.8255 209.609 74.4434 209.66 73.9829C209.71 73.4712 209.718 72.9561 209.683 72.4432C209.641 71.832 209.554 71.2246 209.424 70.6259C209.274 69.9372 209.049 69.2667 208.755 68.6259C208.232 67.4026 207.459 66.3018 206.486 65.3934C205.613 64.5883 204.58 63.9747 203.456 63.5922C202.331 63.2098 201.139 63.0668 199.955 63.1725C198.699 63.2802 197.471 63.6044 196.326 64.1308C195.153 64.6535 194.077 65.3735 193.147 66.2593C192.256 67.0979 191.54 68.1041 191.04 69.2203C190.55 70.3325 190.295 71.5337 190.29 72.749C190.292 74.0787 190.587 75.3918 191.153 76.5951C191.464 77.3015 191.862 77.9669 192.335 78.5764C192.751 79.1092 193.209 79.6079 193.704 80.0679C194.117 80.4544 194.564 80.8026 195.041 81.108C195.473 81.3781 195.843 81.5982 196.151 81.7684C196.862 82.1444 197.041 82.6567 196.688 83.3053L196.263 84.0776C196.205 84.2218 196.116 84.3515 196.002 84.4576C195.888 84.5637 195.753 84.6437 195.605 84.6919C195.457 84.74 195.3 84.7552 195.146 84.7364C194.992 84.7176 194.843 84.6651 194.711 84.5828C194.34 84.3886 193.88 84.1254 193.331 83.7932C192.715 83.4109 192.136 82.9728 191.6 82.4844C190.939 81.8833 190.332 81.225 189.786 80.5173C188.062 78.2367 187.073 75.4858 186.949 72.6299C186.907 70.9862 187.204 69.3515 187.822 67.8277C188.444 66.3131 189.363 64.9389 190.526 63.786C191.766 62.5581 193.221 61.5684 194.818 60.8662" fill="white"/>
<path id="Caminho 1325" d="M197.091 86.1136C197.896 85.9329 198.733 85.9524 199.529 86.1703C200.238 86.3772 200.893 86.739 201.445 87.2295C202.013 87.7373 202.504 88.3241 202.904 88.9718C203.328 89.6505 203.686 90.368 203.975 91.1144C204.261 91.8487 204.505 92.5985 204.706 93.3604C204.9 94.1002 205.057 94.7701 205.175 95.37L205.353 96.2695L205.803 96.1808C206.425 96.0745 207.021 95.853 207.561 95.5276C207.985 95.2669 208.34 94.9069 208.594 94.4787C208.826 94.0687 208.963 93.6117 208.994 93.1415C209.028 92.6308 208.993 92.1179 208.89 91.6165C208.747 90.8188 208.462 90.0532 208.048 89.3563C207.741 88.8398 207.392 88.3498 207.004 87.8916C206.548 87.2868 206.584 86.7406 207.111 86.253L207.541 85.8807C208.16 85.3745 208.704 85.3986 209.173 85.9532C209.696 86.5946 210.168 87.2768 210.582 87.9932C211.171 89.0289 211.577 90.1585 211.781 91.3324C212.215 93.5231 211.968 95.3329 211.04 96.7619C210.113 98.1908 208.53 99.1267 206.294 99.5694L196.365 101.532C196.214 101.585 196.053 101.602 195.895 101.582C195.736 101.562 195.585 101.506 195.452 101.417C195.32 101.328 195.209 101.209 195.131 101.07C195.052 100.932 195.006 100.776 194.998 100.617L194.827 99.7521C194.774 99.6014 194.757 99.4406 194.777 99.2822C194.797 99.1238 194.854 98.9723 194.943 98.8396C195.032 98.707 195.15 98.5968 195.289 98.5179C195.428 98.439 195.583 98.3935 195.743 98.385L196.781 98.1796L197.23 98.0909C197.346 98.0652 197.464 98.0539 197.583 98.0573C197.679 98.0613 197.777 98.0665 197.873 98.0714L197.86 98.0022C197.115 97.8002 196.408 97.4787 195.766 97.0503C195.157 96.6274 194.615 96.1169 194.155 95.5353C193.59 94.7992 193.216 93.9351 193.065 93.0196C192.914 92.2683 192.883 91.4981 192.973 90.7371C193.052 90.0062 193.273 89.2976 193.621 88.6501C193.961 88.0212 194.427 87.4694 194.99 87.0294C195.607 86.5601 196.327 86.2453 197.091 86.1112M198.038 89.4462C197.319 89.6005 196.688 90.0281 196.279 90.6387C195.798 91.2962 195.664 92.1672 195.879 93.2517C196.006 93.9495 196.314 94.6014 196.774 95.1415C197.218 95.6591 197.766 96.0774 198.382 96.3693C199.009 96.6668 199.679 96.8622 200.368 96.9479C201.04 97.0376 201.722 97.018 202.387 96.8899L203.148 96.7391L202.97 95.84C202.848 95.2171 202.677 94.5079 202.46 93.7124C202.25 92.9363 201.951 92.1872 201.568 91.4802C201.226 90.8257 200.739 90.2577 200.144 89.819C199.84 89.6105 199.495 89.4691 199.132 89.4046C198.769 89.34 198.396 89.3537 198.039 89.4446" fill="white"/>
<path id="Caminho 1326" d="M212.913 106.033C213.072 106.021 213.232 106.047 213.379 106.107C213.527 106.168 213.659 106.262 213.764 106.382C213.869 106.502 213.945 106.646 213.985 106.8C214.025 106.955 214.029 107.116 213.996 107.273L213.929 108.258C213.941 108.417 213.916 108.577 213.855 108.725C213.795 108.872 213.7 109.004 213.58 109.109C213.46 109.214 213.317 109.29 213.162 109.33C213.008 109.37 212.846 109.374 212.69 109.34L211.107 109.234C210.871 109.218 210.636 109.178 210.408 109.116C210.306 109.085 210.2 109.066 210.094 109.059L210.089 109.13C210.626 109.401 211.121 109.75 211.556 110.165C212.038 110.616 212.456 111.132 212.796 111.698C213.149 112.28 213.427 112.905 213.625 113.556C213.828 114.219 213.907 114.913 213.858 115.604C213.661 118.536 212.192 120.227 209.452 120.679L209.447 120.749C209.979 121.042 210.466 121.408 210.894 121.837C211.359 122.293 211.764 122.807 212.099 123.367C212.443 123.945 212.704 124.57 212.875 125.221C213.055 125.905 213.12 126.614 213.069 127.32C212.932 129.36 212.263 130.811 211.062 131.673C209.861 132.535 208.123 132.889 205.848 132.735L195.61 132.046C195.451 132.058 195.291 132.033 195.144 131.972C194.996 131.912 194.864 131.818 194.759 131.697C194.654 131.577 194.578 131.434 194.538 131.28C194.498 131.125 194.494 130.963 194.527 130.807L194.601 129.716C194.589 129.557 194.614 129.397 194.675 129.249C194.736 129.102 194.83 128.97 194.95 128.865C195.07 128.76 195.213 128.684 195.368 128.644C195.522 128.604 195.684 128.6 195.84 128.634L205.339 129.273C205.928 129.316 206.518 129.314 207.107 129.268C207.604 129.235 208.091 129.112 208.545 128.906C208.958 128.71 209.308 128.403 209.558 128.02C209.845 127.543 210.003 127 210.017 126.443C210.081 125.666 209.932 124.886 209.586 124.188C209.239 123.5 208.75 122.895 208.15 122.412C207.513 121.899 206.793 121.497 206.022 121.226C205.225 120.938 204.392 120.763 203.547 120.706L196.405 120.225C195.631 120.173 195.27 119.772 195.32 119.021L195.396 117.895C195.447 117.144 195.859 116.795 196.633 116.847L206.132 117.487C206.696 117.527 207.263 117.529 207.828 117.495C208.327 117.472 208.819 117.363 209.281 117.171C209.705 116.988 210.069 116.687 210.329 116.305C210.631 115.821 210.796 115.265 210.809 114.694C210.875 113.898 210.72 113.099 210.363 112.385C210.011 111.691 209.516 111.08 208.911 110.591C208.275 110.077 207.555 109.676 206.783 109.405C205.998 109.119 205.177 108.945 204.343 108.887L197.202 108.406C197.042 108.418 196.882 108.393 196.735 108.332C196.587 108.272 196.455 108.178 196.35 108.057C196.245 107.937 196.17 107.794 196.129 107.639C196.089 107.485 196.086 107.323 196.119 107.167L196.192 106.076C196.18 105.917 196.206 105.757 196.266 105.609C196.327 105.462 196.421 105.33 196.541 105.225C196.661 105.12 196.804 105.045 196.959 105.004C197.113 104.964 197.275 104.96 197.431 104.994L212.913 106.033Z" fill="white"/>
<path id="Caminho 1327" d="M197.982 135.14C198.731 135.37 199.413 135.777 199.97 136.327C200.527 136.876 200.944 137.552 201.183 138.298C201.418 139.022 201.547 139.776 201.566 140.537C201.591 141.337 201.539 142.137 201.412 142.928C201.29 143.706 201.123 144.477 200.913 145.237C200.709 145.975 200.506 146.632 200.306 147.21L200.007 148.077L200.44 148.226C201.031 148.447 201.657 148.556 202.288 148.548C202.786 148.536 203.273 148.403 203.708 148.161C204.115 147.924 204.464 147.598 204.728 147.208C205.014 146.783 205.242 146.322 205.405 145.837C205.683 145.076 205.822 144.271 205.816 143.461C205.811 142.86 205.756 142.261 205.651 141.67C205.562 140.918 205.868 140.464 206.569 140.308L207.128 140.202C207.917 140.077 208.375 140.372 208.501 141.087C208.63 141.904 208.694 142.731 208.692 143.559C208.679 144.75 208.461 145.93 208.047 147.048C207.317 149.158 206.192 150.598 204.672 151.366C203.151 152.135 201.313 152.146 199.157 151.402L189.591 148.099C189.434 148.068 189.287 148.002 189.16 147.905C189.033 147.808 188.931 147.682 188.861 147.539C188.791 147.395 188.756 147.237 188.758 147.078C188.759 146.918 188.798 146.761 188.871 146.619L189.159 145.786C189.189 145.629 189.255 145.481 189.352 145.355C189.449 145.228 189.575 145.125 189.718 145.055C189.862 144.986 190.02 144.95 190.179 144.952C190.339 144.954 190.496 144.992 190.638 145.065L191.638 145.411L192.072 145.561C192.184 145.597 192.292 145.646 192.393 145.708L192.636 145.868L192.66 145.801C192.118 145.251 191.669 144.618 191.33 143.924C191.017 143.253 190.805 142.538 190.701 141.805C190.583 140.884 190.695 139.949 191.025 139.081C191.274 138.357 191.635 137.676 192.095 137.063C192.532 136.472 193.079 135.97 193.705 135.586C194.315 135.215 194.996 134.973 195.704 134.877C196.473 134.782 197.254 134.873 197.982 135.141M197.12 138.5C196.421 138.271 195.661 138.323 195 138.644C194.253 138.97 193.699 139.656 193.339 140.701C193.097 141.367 193.035 142.086 193.16 142.784C193.283 143.455 193.545 144.092 193.93 144.655C194.321 145.227 194.801 145.734 195.352 146.154C195.887 146.57 196.486 146.897 197.126 147.121L197.859 147.375L198.158 146.508C198.366 145.908 198.576 145.209 198.789 144.412C198.998 143.636 199.117 142.839 199.143 142.036C199.176 141.298 199.041 140.563 198.748 139.885C198.591 139.551 198.364 139.256 198.083 139.017C197.801 138.778 197.473 138.602 197.118 138.501" fill="white"/>
<path id="Caminho 1328" d="M201.427 158.966C201.577 159.021 201.712 159.111 201.821 159.227C201.93 159.344 202.011 159.484 202.057 159.637C202.102 159.79 202.111 159.952 202.084 160.109C202.056 160.266 201.992 160.415 201.897 160.543L201.427 161.411C201.372 161.561 201.282 161.696 201.166 161.805C201.049 161.914 200.909 161.995 200.756 162.04C200.603 162.086 200.441 162.095 200.284 162.068C200.127 162.04 199.978 161.976 199.85 161.881L198.051 160.909C197.886 160.819 197.733 160.73 197.594 160.641C197.474 160.566 197.358 160.483 197.247 160.394C197.146 160.313 197.037 160.241 196.923 160.178L196.889 160.24C197.328 160.7 197.711 161.21 198.031 161.76C198.361 162.316 198.609 162.917 198.77 163.543C198.928 164.157 198.99 164.792 198.954 165.426C198.913 166.076 198.728 166.709 198.413 167.278C198.055 167.94 197.535 168.086 196.852 167.717L195.984 167.247C195.302 166.878 195.162 166.321 195.565 165.577C195.964 164.876 196.142 164.071 196.074 163.267C195.997 162.485 195.758 161.728 195.373 161.044C194.952 160.303 194.411 159.637 193.771 159.075C193.114 158.481 192.39 157.968 191.612 157.545L186.154 154.592C186.004 154.536 185.87 154.447 185.76 154.33C185.651 154.214 185.571 154.074 185.525 153.921C185.479 153.767 185.47 153.606 185.498 153.449C185.526 153.291 185.589 153.143 185.685 153.014L186.205 152.053C186.26 151.903 186.35 151.768 186.466 151.659C186.583 151.55 186.723 151.47 186.876 151.424C187.029 151.379 187.191 151.369 187.348 151.397C187.505 151.425 187.654 151.489 187.782 151.584L201.427 158.966Z" fill="white"/>
<path id="Caminho 1329" d="M177.336 159.235C177.421 159.361 177.477 159.505 177.5 159.655C177.523 159.806 177.513 159.96 177.47 160.106C177.428 160.252 177.354 160.387 177.254 160.502C177.154 160.616 177.03 160.708 176.891 160.769C176.5 161 176.038 161.311 175.507 161.701C174.894 162.172 174.348 162.723 173.881 163.338C173.43 163.906 173.052 164.529 172.758 165.192C172.483 165.8 172.339 166.458 172.335 167.125C172.342 167.791 172.501 168.446 172.801 169.041C173.175 169.749 173.703 170.364 174.346 170.841L175.565 171.801C175.676 171.888 175.782 171.971 175.884 172.052C175.982 172.128 176.072 172.214 176.153 172.309C176.23 172.399 176.308 172.491 176.386 172.582L176.429 172.527C175.979 171.543 175.823 170.45 175.982 169.379C176.14 168.309 176.605 167.307 177.321 166.495C178.025 165.572 178.926 164.817 179.958 164.286C180.915 163.8 181.965 163.525 183.038 163.48C184.147 163.444 185.253 163.628 186.29 164.023C187.449 164.458 188.531 165.076 189.496 165.852C190.443 166.582 191.267 167.459 191.939 168.448C192.547 169.341 192.978 170.343 193.206 171.399C193.419 172.427 193.395 173.49 193.136 174.508C192.834 175.644 192.292 176.701 191.546 177.61C190.993 178.363 190.29 178.993 189.482 179.462C188.896 179.789 188.264 180.026 187.607 180.162C186.992 180.289 186.356 180.278 185.745 180.132L185.701 180.187C185.751 180.191 185.799 180.212 185.834 180.247C185.962 180.309 186.081 180.388 186.188 180.482L186.991 181.114C187.508 181.521 187.527 182.03 187.047 182.639L186.524 183.304C186.444 183.442 186.333 183.56 186.199 183.648C186.066 183.735 185.914 183.791 185.755 183.81C185.597 183.829 185.436 183.81 185.286 183.756C185.136 183.702 185 183.614 184.89 183.499L172.37 173.637C171.327 172.867 170.48 171.862 169.898 170.704C169.427 169.719 169.179 168.643 169.172 167.552C169.173 166.482 169.388 165.423 169.806 164.438C170.223 163.436 170.774 162.495 171.445 161.642C172.028 160.896 172.682 160.209 173.398 159.59C174.02 159.045 174.7 158.573 175.428 158.181C176.103 157.816 176.633 157.979 177.017 158.67L177.336 159.235ZM179.276 168.797C178.9 169.273 178.608 169.809 178.41 170.382C178.21 170.968 178.163 171.596 178.275 172.205C178.415 172.918 178.7 173.594 179.114 174.191C179.676 174.992 180.362 175.699 181.145 176.285C181.908 176.919 182.769 177.423 183.696 177.776C184.372 178.031 185.095 178.133 185.816 178.077C186.437 178.015 187.033 177.798 187.548 177.445C188.075 177.082 188.543 176.641 188.937 176.137C189.94 174.862 190.29 173.574 189.984 172.271C189.679 170.968 188.833 169.771 187.448 168.681C185.933 167.488 184.444 166.89 182.979 166.889C182.254 166.889 181.54 167.063 180.896 167.395C180.252 167.727 179.697 168.208 179.276 168.798" fill="white"/>
<path id="Caminho 1330" d="M175.793 182.075C176.608 183.062 177.205 184.21 177.545 185.444C177.867 186.611 177.96 187.83 177.819 189.032C177.672 190.235 177.286 191.397 176.683 192.448C175.379 194.683 173.303 196.364 170.846 197.174C169.689 197.548 168.469 197.688 167.257 197.587C166.046 197.485 164.866 197.144 163.788 196.583C162.655 195.979 161.654 195.153 160.846 194.155C160.038 193.157 159.439 192.007 159.083 190.773C158.761 189.602 158.673 188.379 158.823 187.173C158.978 185.964 159.364 184.796 159.962 183.733C161.247 181.482 163.33 179.795 165.799 179.006C166.958 178.644 168.177 178.512 169.387 178.619C170.593 178.73 171.765 179.074 172.84 179.632C173.986 180.228 174.992 181.06 175.793 182.073M173.107 184.248C172.556 183.552 171.871 182.973 171.092 182.546C170.379 182.153 169.597 181.901 168.789 181.803C167.58 181.674 166.36 181.909 165.284 182.477C164.209 183.045 163.327 183.92 162.752 184.991C162.379 185.693 162.145 186.46 162.063 187.25C161.981 188.061 162.065 188.881 162.311 189.658C162.578 190.503 163.006 191.289 163.572 191.972C164.112 192.653 164.781 193.222 165.54 193.645C166.247 194.039 167.027 194.288 167.832 194.375C168.622 194.459 169.421 194.39 170.185 194.172C171.357 193.839 172.401 193.161 173.182 192.225C173.963 191.29 174.443 190.141 174.561 188.928C174.712 187.239 174.191 185.558 173.11 184.25" fill="white"/>
<path id="Caminho 1331" d="M144.659 218.128C144.731 218.271 144.769 218.428 144.769 218.588C144.77 218.748 144.734 218.905 144.663 219.048C144.592 219.192 144.489 219.316 144.362 219.413C144.234 219.509 144.086 219.574 143.929 219.604L142.86 219.965C142.718 220.038 142.561 220.076 142.401 220.076C142.241 220.077 142.083 220.041 141.94 219.97C141.797 219.899 141.672 219.796 141.576 219.669C141.48 219.541 141.414 219.393 141.385 219.236L134.147 197.861C134.075 197.718 134.037 197.561 134.036 197.401C134.036 197.241 134.072 197.084 134.143 196.94C134.214 196.797 134.317 196.673 134.444 196.576C134.572 196.48 134.72 196.414 134.877 196.385L135.946 196.023C136.088 195.951 136.245 195.913 136.405 195.912C136.565 195.912 136.722 195.948 136.866 196.019C137.009 196.09 137.133 196.193 137.23 196.32C137.326 196.447 137.392 196.595 137.421 196.752L144.659 218.128Z" fill="white"/>
<path id="Caminho 1332" d="M131.015 199.23C131.069 199.469 131.078 199.716 131.043 199.959C130.986 200.197 130.895 200.425 130.774 200.637L124.353 212.653C124.211 212.918 124.073 213.171 123.938 213.411C123.803 213.652 123.679 213.854 123.566 214.019L123.198 214.553L123.211 214.622C123.344 214.572 123.481 214.535 123.621 214.511C123.794 214.452 123.971 214.407 124.152 214.377L124.898 214.239L131.971 212.931C132.122 212.88 132.283 212.865 132.441 212.887C132.599 212.909 132.75 212.968 132.882 213.058C133.013 213.149 133.122 213.269 133.199 213.408C133.276 213.548 133.32 213.703 133.327 213.863L133.436 214.452C133.487 214.603 133.502 214.764 133.48 214.923C133.457 215.081 133.399 215.232 133.309 215.363C133.218 215.495 133.098 215.603 132.959 215.681C132.819 215.758 132.663 215.802 132.504 215.808L120.333 218.059C119.571 218.2 119.129 217.947 119.009 217.299L118.958 217.022C118.904 216.783 118.895 216.536 118.931 216.293C118.988 216.056 119.079 215.828 119.2 215.616L125.614 203.564C125.756 203.299 125.896 203.052 126.033 202.824C126.17 202.595 126.295 202.399 126.408 202.234C126.54 202.043 126.674 201.862 126.81 201.694L126.797 201.624C126.658 201.652 126.521 201.689 126.387 201.736C126.249 201.762 126.076 201.799 125.87 201.849C125.665 201.899 125.411 201.952 125.111 202.008L117.344 203.444C116.581 203.585 116.131 203.285 115.994 202.546L115.879 201.922C115.828 201.77 115.813 201.609 115.835 201.451C115.857 201.293 115.916 201.143 116.006 201.011C116.097 200.879 116.216 200.771 116.356 200.694C116.496 200.616 116.651 200.573 116.811 200.566L129.64 198.194C130.403 198.053 130.844 198.306 130.964 198.953L131.015 199.23Z" fill="white"/>
<path id="Caminho 1333" d="M114.573 205.86C114.587 206.643 114.413 207.418 114.064 208.118C113.715 208.819 113.201 209.425 112.568 209.884C111.952 210.332 111.275 210.689 110.558 210.944C109.805 211.216 109.028 211.416 108.237 211.54C107.459 211.665 106.675 211.746 105.887 211.783C105.123 211.817 104.435 211.83 103.824 211.82L102.907 211.805L102.899 212.264C102.873 212.894 102.964 213.523 103.169 214.12C103.335 214.589 103.613 215.011 103.979 215.35C104.331 215.663 104.749 215.893 105.202 216.022C105.695 216.162 106.204 216.236 106.715 216.24C107.525 216.267 108.333 216.149 109.102 215.891C109.671 215.7 110.223 215.461 110.753 215.177C111.44 214.859 111.967 215.008 112.333 215.626L112.607 216.124C112.972 216.835 112.834 217.362 112.193 217.705C111.457 218.082 110.691 218.4 109.903 218.655C108.767 219.013 107.577 219.173 106.387 219.127C104.154 219.09 102.436 218.469 101.233 217.263C100.03 216.057 99.4471 214.313 99.4841 212.033L99.6462 201.914C99.6261 201.756 99.6432 201.595 99.6961 201.444C99.749 201.293 99.8363 201.157 99.951 201.046C100.066 200.935 100.205 200.852 100.357 200.804C100.509 200.756 100.67 200.744 100.828 200.769L101.71 200.784C101.868 200.764 102.029 200.781 102.18 200.834C102.33 200.887 102.467 200.974 102.578 201.089C102.689 201.203 102.771 201.342 102.819 201.495C102.868 201.647 102.88 201.808 102.854 201.966L102.837 203.024C102.835 203.188 102.832 203.341 102.83 203.482C102.83 203.601 102.817 203.719 102.789 203.834C102.764 203.927 102.739 204.021 102.714 204.115H102.784C103.138 203.429 103.601 202.805 104.155 202.268C104.696 201.762 105.309 201.338 105.974 201.012C106.812 200.614 107.736 200.429 108.663 200.473C109.429 200.484 110.188 200.616 110.914 200.862C111.611 201.094 112.258 201.458 112.818 201.934C113.361 202.398 113.803 202.969 114.114 203.612C114.444 204.314 114.601 205.084 114.572 205.859M111.112 206.085C111.112 205.35 110.826 204.644 110.315 204.115C109.773 203.507 108.949 203.194 107.843 203.175C107.135 203.153 106.432 203.318 105.808 203.654C105.208 203.98 104.683 204.428 104.268 204.969C103.846 205.519 103.515 206.132 103.287 206.787C103.058 207.424 102.934 208.095 102.919 208.772L102.907 209.548L103.824 209.563C104.458 209.573 105.187 209.556 106.012 209.51C106.814 209.468 107.61 209.333 108.381 209.108C109.092 208.909 109.749 208.552 110.302 208.063C110.57 207.81 110.781 207.502 110.92 207.161C111.06 206.819 111.124 206.452 111.11 206.084" fill="white"/>
<path id="Caminho 1334" d="M91.0889 223.762C91.0774 223.921 91.0291 224.075 90.9478 224.212C90.8665 224.349 90.7544 224.466 90.6203 224.552C90.4863 224.639 90.334 224.693 90.1754 224.71C90.0169 224.728 89.8564 224.708 89.7068 224.653L88.6379 224.424C87.9034 224.266 87.6171 223.808 87.7789 223.049L89.2951 215.981C89.3445 215.751 89.3934 215.551 89.4418 215.381C89.4901 215.212 89.5408 215.06 89.5937 214.928C89.6433 214.796 89.6839 214.66 89.7153 214.523L89.6464 214.507C89.1922 215.04 88.6447 215.484 88.0309 215.82C87.3936 216.146 86.7171 216.389 86.018 216.542C85.1097 216.731 84.171 216.714 83.27 216.493C82.1838 216.275 81.1607 215.816 80.2765 215.148C79.4409 214.51 78.7536 213.698 78.2623 212.768C77.7483 211.77 77.437 210.68 77.3462 209.56C77.2361 208.287 77.3227 207.004 77.6031 205.757C77.8614 204.465 78.3346 203.225 79.003 202.09C79.584 201.105 80.3568 200.247 81.2757 199.566C82.1558 198.922 83.1636 198.474 84.2313 198.252C85.299 198.03 86.4019 198.04 87.4657 198.279C88.3676 198.443 89.22 198.811 89.9576 199.355C90.5244 199.788 91.0289 200.296 91.4568 200.867C91.8735 201.444 92.1745 202.096 92.3433 202.788L92.4122 202.803C92.4321 202.709 92.4403 202.614 92.4365 202.519C92.4424 202.259 92.4741 202 92.5309 201.746L92.7157 200.884C92.8583 200.217 93.309 199.965 94.0678 200.128L94.9296 200.313C95.0889 200.324 95.2434 200.372 95.3809 200.453C95.5183 200.534 95.635 200.646 95.7217 200.78C95.8084 200.914 95.8627 201.067 95.8803 201.226C95.8978 201.384 95.8783 201.545 95.823 201.695L91.0889 223.762ZM90.958 208.567C91.1285 207.784 91.1918 206.98 91.146 206.18C91.1071 205.428 90.9428 204.688 90.6598 203.99C90.3916 203.331 89.9748 202.743 89.4418 202.271C88.857 201.773 88.1522 201.436 87.3972 201.294C86.721 201.146 86.0212 201.143 85.3437 201.285C84.662 201.427 84.0204 201.72 83.4653 202.14C82.8582 202.608 82.3476 203.188 81.9621 203.85C81.5032 204.64 81.1785 205.5 81.0014 206.395C80.8052 207.26 80.7419 208.15 80.8138 209.035C80.8736 209.792 81.0762 210.531 81.411 211.212C81.7215 211.832 82.1651 212.375 82.71 212.803C83.2632 213.236 83.9089 213.534 84.5966 213.676C85.2455 213.819 85.9158 213.834 86.5706 213.722C87.2344 213.604 87.8636 213.34 88.413 212.949C89.0354 212.499 89.5577 211.925 89.947 211.264C90.434 210.428 90.7759 209.517 90.958 208.567Z" fill="white"/>
<path id="Caminho 1335" d="M74.3821 204.575C73.8571 205.779 73.1071 206.871 72.1722 207.794C71.3359 208.618 70.3443 209.268 69.2549 209.707C68.19 210.123 67.0497 210.313 65.9073 210.264C64.6945 210.212 63.5037 209.923 62.402 209.413C61.3688 208.967 60.4401 208.31 59.6755 207.484C58.9935 206.739 58.4893 205.85 58.2011 204.882C57.9186 203.891 57.8352 202.853 57.9555 201.83C58.0907 200.678 58.409 199.554 58.8984 198.502C58.9604 198.359 59.05 198.229 59.1622 198.121C59.2745 198.012 59.407 197.927 59.5523 197.869C59.7014 197.809 59.8614 197.781 60.022 197.787C60.1827 197.793 60.3402 197.833 60.4843 197.904L71.3432 202.814C71.683 201.992 71.8579 201.111 71.8578 200.221C71.8547 199.43 71.6954 198.648 71.389 197.919C71.0933 197.223 70.6608 196.593 70.1171 196.067C69.5598 195.529 68.9126 195.092 68.2046 194.777C67.4096 194.395 66.5443 194.182 65.6629 194.15C65.0168 194.126 64.37 194.178 63.7359 194.304C62.9385 194.356 62.5098 194.02 62.4498 193.297L62.3785 192.684C62.3213 192.383 62.3857 192.071 62.5576 191.817C62.653 191.7 62.7717 191.604 62.9061 191.535C63.0406 191.466 63.1879 191.425 63.3388 191.416C63.7201 191.342 64.1054 191.29 64.4928 191.261C64.9891 191.221 65.4877 191.22 65.9842 191.257C66.5695 191.302 67.1505 191.39 67.7225 191.521C68.3745 191.67 69.0096 191.886 69.6175 192.165C70.8246 192.692 71.9141 193.454 72.8221 194.407C73.6488 195.281 74.295 196.31 74.7237 197.434C75.1426 198.551 75.3288 199.741 75.2707 200.932C75.2108 202.192 74.9081 203.428 74.3792 204.573M61.5783 200.875C60.9726 202.329 60.8851 203.592 61.3157 204.665C61.5181 205.184 61.8214 205.657 62.2082 206.058C62.595 206.459 63.0575 206.779 63.5689 206.999C64.6991 207.537 65.9899 207.63 67.1856 207.261C68.474 206.833 69.5711 205.966 70.2857 204.812L61.5783 200.875Z" fill="white"/>
<path id="Caminho 1336" d="M47.7314 207.736C47.6643 207.881 47.5645 208.008 47.4397 208.108C47.3149 208.208 47.1687 208.277 47.0125 208.31C46.8563 208.343 46.6946 208.34 46.54 208.3C46.3854 208.26 46.2423 208.184 46.122 208.079L45.2047 207.484C45.0598 207.417 44.9325 207.317 44.8329 207.192C44.7334 207.068 44.6642 206.921 44.6309 206.765C44.5976 206.609 44.6011 206.447 44.6411 206.293C44.6811 206.138 44.7566 205.995 44.8615 205.875L54.8967 190.402C55.1262 190.069 55.3061 189.704 55.4307 189.32C55.5155 189.061 55.5355 188.785 55.489 188.517C55.4498 188.309 55.3601 188.114 55.2277 187.95C55.1054 187.801 54.9698 187.663 54.8225 187.539C54.6417 187.375 54.509 187.165 54.4384 186.931C54.4103 186.801 54.4111 186.667 54.4407 186.537C54.4703 186.407 54.528 186.286 54.6098 186.181L55.0705 185.471C55.2265 185.196 55.475 184.985 55.7718 184.875C55.9394 184.843 56.1119 184.848 56.2772 184.89C56.4425 184.932 56.5965 185.01 56.7285 185.118C57.1629 185.406 57.5698 185.733 57.944 186.095C58.358 186.488 58.6781 186.969 58.8808 187.502C59.097 188.111 59.1574 188.764 59.0567 189.402C58.8922 190.306 58.5307 191.162 57.9979 191.91L47.7314 207.736Z" fill="white"/>
<path id="Caminho 1337" d="M38.7189 201.505C38.6381 201.643 38.5264 201.76 38.3925 201.847C38.2586 201.934 38.1063 201.989 37.9476 202.007C37.7889 202.025 37.6282 202.006 37.4782 201.951C37.3283 201.896 37.1932 201.807 37.0836 201.69L36.2287 201.009C36.091 200.928 35.9741 200.817 35.8871 200.683C35.8001 200.549 35.7455 200.396 35.7276 200.238C35.7096 200.079 35.7289 199.918 35.7838 199.768C35.8387 199.619 35.9278 199.484 36.0439 199.374L47.5349 184.949C47.7957 184.64 48.0102 184.295 48.1715 183.924C48.2809 183.674 48.3276 183.402 48.3076 183.131C48.2891 182.919 48.2187 182.716 48.1026 182.539C47.9949 182.379 47.8728 182.229 47.7379 182.091C47.5739 181.91 47.4619 181.689 47.4138 181.45C47.3986 181.318 47.4124 181.184 47.4544 181.058C47.4964 180.932 47.5655 180.817 47.6569 180.72L48.1836 180.058C48.3656 179.799 48.6335 179.613 48.9397 179.533C49.1095 179.518 49.2808 179.539 49.4412 179.597C49.6017 179.655 49.7476 179.747 49.8684 179.868C50.2728 180.196 50.6459 180.561 50.983 180.958C51.3567 181.389 51.6287 181.899 51.7788 182.449C51.9349 183.076 51.9315 183.732 51.7691 184.357C51.5178 185.24 51.0751 186.057 50.4725 186.75L38.7189 201.505Z" fill="white"/>
<path id="Caminho 1338" d="M44.3644 182.121C43.8128 182.677 43.1352 183.09 42.3893 183.327C41.6434 183.564 40.8513 183.618 40.0804 183.483C39.3302 183.352 38.6027 183.115 37.9199 182.778C37.2008 182.427 36.5166 182.009 35.8766 181.528C35.2452 181.057 34.6407 180.551 34.0662 180.012C33.5095 179.487 33.0218 179.002 32.6031 178.556L31.9755 177.887L31.6416 178.201C31.1708 178.621 30.7824 179.124 30.4965 179.687C30.2749 180.132 30.1652 180.626 30.1769 181.123C30.1969 181.594 30.3229 182.054 30.5456 182.47C30.7878 182.921 31.0892 183.337 31.4418 183.708C31.9863 184.308 32.6337 184.806 33.3535 185.178C33.887 185.453 34.4427 185.684 35.0148 185.866C35.7222 186.138 35.9814 186.621 35.7923 187.313L35.6254 187.857C35.369 188.613 34.895 188.881 34.2032 188.66C33.4194 188.394 32.6581 188.065 31.9268 187.677C30.8784 187.111 29.9356 186.368 29.14 185.481C27.6116 183.853 26.8619 182.187 26.8908 180.483C26.9197 178.779 27.7656 177.147 29.4285 175.587L36.8073 168.661C36.9071 168.536 37.0345 168.436 37.1796 168.369C37.3246 168.303 37.4832 168.27 37.6428 168.275C37.8024 168.28 37.9586 168.323 38.0991 168.398C38.2397 168.474 38.3606 168.582 38.4523 168.713L39.0556 169.356C39.1803 169.455 39.28 169.583 39.3468 169.728C39.4136 169.873 39.4458 170.031 39.4407 170.191C39.4356 170.351 39.3935 170.507 39.3176 170.647C39.2417 170.788 39.1341 170.909 39.0034 171L38.2335 171.724L37.8993 172.038C37.8146 172.121 37.7202 172.193 37.6181 172.253C37.5342 172.301 37.4491 172.348 37.364 172.395L37.4126 172.446C38.1511 172.223 38.921 172.121 39.6922 172.145C40.4324 172.18 41.1633 172.325 41.8611 172.575C42.7303 172.9 43.5058 173.434 44.1192 174.131C44.6446 174.688 45.0791 175.325 45.4069 176.018C45.7264 176.68 45.9154 177.397 45.9636 178.131C46.0081 178.844 45.9047 179.558 45.6602 180.229C45.3851 180.954 44.9405 181.603 44.3636 182.121M41.7931 179.795C42.3211 179.283 42.6294 178.585 42.6529 177.85C42.7126 177.037 42.364 176.228 41.6071 175.422C41.1299 174.897 40.5227 174.508 39.847 174.293C39.1959 174.09 38.5094 174.026 37.832 174.105C37.1435 174.184 36.4722 174.373 35.8437 174.665C35.2262 174.945 34.6582 175.323 34.1618 175.785L33.5946 176.315L34.2218 176.984C34.6564 177.447 35.1766 177.958 35.7822 178.518C36.3712 179.065 37.0217 179.541 37.7206 179.939C38.358 180.311 39.0716 180.534 39.8077 180.591C40.1763 180.607 40.5443 180.544 40.8867 180.407C41.2291 180.269 41.5381 180.06 41.7931 179.793" fill="white"/>
<path id="Caminho 1339" d="M19.6426 164.522C18.0832 165.26 16.3959 165.69 14.6734 165.789C13.0578 165.882 11.4398 165.653 9.91372 165.114C8.38741 164.565 6.98854 163.711 5.80191 162.605C4.52176 161.409 3.49329 159.97 2.77681 158.371C2.35999 157.488 2.03678 156.563 1.81247 155.612C1.62684 154.82 1.50128 154.014 1.43686 153.202C1.38539 152.548 1.38716 151.892 1.44213 151.238C1.48244 150.755 1.55242 150.275 1.65162 149.801C1.8091 149.133 2.27033 148.842 3.03531 148.928L3.86796 149.05C4.59081 149.156 4.90308 149.608 4.80475 150.404C4.7637 150.708 4.72035 151.09 4.6747 151.552C4.62878 152.064 4.62606 152.579 4.66659 153.091C4.71444 153.702 4.80652 154.309 4.94211 154.906C5.09992 155.593 5.33084 156.262 5.63093 156.9C6.16672 158.117 6.94992 159.211 7.93076 160.11C8.81182 160.906 9.84991 161.51 10.9783 161.882C12.1067 162.253 13.3004 162.385 14.4826 162.268C15.7375 162.148 16.9623 161.812 18.1025 161.274C19.2716 160.74 20.3405 160.01 21.2629 159.115C22.1457 158.268 22.8524 157.255 23.3423 156.134C23.8217 155.017 24.0654 153.814 24.0583 152.599C24.0436 151.269 23.7365 149.959 23.1588 148.761C22.8407 148.058 22.4371 147.396 21.957 146.791C21.5364 146.262 21.0742 145.768 20.5749 145.313C20.1575 144.93 19.706 144.586 19.2261 144.285C18.7925 144.02 18.4204 143.804 18.1098 143.637C17.3953 143.268 17.2112 142.758 17.5575 142.106L17.9757 141.33C18.0324 141.185 18.1202 141.054 18.2328 140.947C18.3454 140.84 18.4802 140.758 18.6276 140.709C18.775 140.659 18.9315 140.642 19.086 140.66C19.2406 140.677 19.3895 140.728 19.5223 140.809C19.8956 140.998 20.3583 141.257 20.9104 141.585C21.5297 141.962 22.1129 142.394 22.6527 142.877C23.3198 143.472 23.9331 144.125 24.4858 144.827C25.1353 145.653 25.6823 146.554 26.115 147.512C26.8916 149.131 27.3289 150.892 27.3999 152.687C27.4578 154.33 27.1764 155.967 26.5733 157.497C25.9661 159.017 25.0599 160.401 23.9084 161.564C22.6802 162.804 21.2349 163.808 19.6442 164.526" fill="white"/>
<path id="Caminho 1340" d="M17.124 139.296C16.3639 139.482 15.57 139.481 14.81 139.294C14.0501 139.107 13.3465 138.739 12.7594 138.222C12.1875 137.719 11.6907 137.137 11.2841 136.493C10.8537 135.819 10.4884 135.105 10.193 134.361C9.90002 133.63 9.64854 132.882 9.43975 132.123C9.23877 131.384 9.07589 130.716 8.9511 130.117L8.7647 129.219L8.31577 129.313C7.69535 129.425 7.10138 129.652 6.56456 129.982C6.14286 130.247 5.79188 130.61 5.54188 131.041C5.31324 131.453 5.18067 131.911 5.1541 132.382C5.12507 132.893 5.16486 133.406 5.27241 133.906C5.42379 134.702 5.71636 135.465 6.13627 136.158C6.44801 136.671 6.80215 137.158 7.19501 137.613C7.65611 138.213 7.62545 138.76 7.10304 139.252L6.6772 139.629C6.06294 140.141 5.51876 140.122 5.0447 139.572C4.51515 138.936 4.03727 138.258 3.61562 137.546C3.01654 136.516 2.59995 135.39 2.38427 134.218C1.93019 132.032 2.1598 130.22 3.07308 128.781C3.98637 127.342 5.55957 126.391 7.79267 125.928L17.7015 123.87C17.8517 123.816 18.0126 123.797 18.1715 123.815C18.3303 123.834 18.4826 123.889 18.6163 123.977C18.7501 124.064 18.8615 124.182 18.9418 124.32C19.0222 124.458 19.0692 124.613 19.0791 124.773L19.2582 125.636C19.3127 125.786 19.3314 125.947 19.3129 126.106C19.2944 126.265 19.2392 126.417 19.1516 126.551C19.0639 126.684 18.9464 126.796 18.8082 126.876C18.67 126.957 18.5149 127.004 18.3554 127.014L17.3198 127.229C17.1577 127.262 17.009 127.294 16.8708 127.322C16.7552 127.348 16.6369 127.361 16.5183 127.359L16.2278 127.347L16.2424 127.416C16.9888 127.611 17.6987 127.926 18.3445 128.348C18.9573 128.765 19.5052 129.27 19.9705 129.847C20.5422 130.578 20.925 131.439 21.0851 132.353C21.2421 133.103 21.2805 133.873 21.199 134.634C21.1261 135.366 20.9129 136.077 20.571 136.728C20.2371 137.359 19.7762 137.914 19.2172 138.359C18.6047 138.834 17.8874 139.156 17.1253 139.298M16.1464 135.972C16.8636 135.81 17.4902 135.377 17.8939 134.762C18.3688 134.1 18.4938 133.228 18.2691 132.146C18.1356 131.449 17.8207 130.8 17.3562 130.264C16.9068 129.751 16.3546 129.338 15.7355 129.052C15.1065 128.761 14.435 128.572 13.7464 128.493C13.0738 128.41 12.3921 128.436 11.7278 128.57L10.9681 128.728L11.1545 129.626C11.2839 130.247 11.4609 130.955 11.6857 131.748C11.9024 132.522 12.2083 133.268 12.5973 133.972C12.9469 134.622 13.4394 135.185 14.0378 135.617C14.3434 135.823 14.6895 135.961 15.0529 136.022C15.4163 136.083 15.7885 136.066 16.1447 135.972" fill="white"/>
<path id="Caminho 1341" d="M1.11438 119.529C0.955323 119.542 0.795347 119.519 0.647124 119.459C0.498901 119.4 0.366492 119.307 0.260364 119.188C0.154236 119.069 0.0772902 118.927 0.0356383 118.772C-0.00601363 118.618 -0.0112289 118.457 0.0203796 118.3L0.0771113 117.314C0.0638291 117.155 0.0877389 116.995 0.14695 116.847C0.206161 116.699 0.299051 116.567 0.418268 116.46C0.537486 116.354 0.679757 116.277 0.833839 116.236C0.98792 116.194 1.14957 116.189 1.30602 116.22L2.8903 116.312C3.12661 116.326 3.36098 116.363 3.59005 116.423C3.6925 116.454 3.7984 116.472 3.90529 116.477L3.90892 116.406C3.36895 116.14 2.87117 115.796 2.43163 115.385C1.94471 114.939 1.52201 114.427 1.17556 113.864C0.817567 113.285 0.53309 112.663 0.328719 112.014C0.11949 111.353 0.0339199 110.66 0.0762952 109.969C0.246202 107.035 1.69879 105.329 4.43405 104.851L4.43811 104.781C3.90444 104.494 3.41403 104.133 2.98146 103.708C2.51193 103.256 2.10222 102.746 1.76227 102.189C1.41226 101.614 1.14503 100.992 0.968496 100.342C0.782314 99.6598 0.709899 98.9515 0.754157 98.2457C0.872201 96.2038 1.52751 94.7465 2.72011 93.8737C3.9127 93.0009 5.64717 92.6304 7.9235 92.7619L18.1674 93.3539C18.3264 93.3405 18.4864 93.3643 18.6347 93.4235C18.783 93.4827 18.9154 93.5756 19.0216 93.6949C19.1277 93.8141 19.2046 93.9564 19.2463 94.1105C19.2879 94.2647 19.293 94.4263 19.2614 94.5828L19.1985 95.6744C19.2119 95.8335 19.1881 95.9934 19.1289 96.1417C19.0697 96.29 18.9768 96.4224 18.8576 96.5286C18.7383 96.6347 18.596 96.7117 18.4419 96.7533C18.2878 96.795 18.1261 96.8001 17.9696 96.7684L8.46482 96.2186C7.87597 96.1817 7.28519 96.1889 6.69741 96.24C6.20063 96.2787 5.71481 96.4062 5.26304 96.6164C4.8515 96.8163 4.50352 97.1264 4.2578 97.5123C3.97504 97.9916 3.82146 98.5361 3.81208 99.0925C3.75549 99.8703 3.91196 100.649 4.26467 101.344C4.61763 102.028 5.11278 102.629 5.71687 103.106C6.35871 103.613 7.08249 104.008 7.85705 104.272C8.65619 104.552 9.49056 104.719 10.336 104.768L17.4822 105.181C18.2569 105.226 18.6225 105.624 18.579 106.375L18.5138 107.501C18.4706 108.253 18.0616 108.606 17.2869 108.561L7.78209 108.011C7.21715 107.977 6.65058 107.98 6.08597 108.019C5.58673 108.048 5.09623 108.163 4.63622 108.359C4.21361 108.546 3.85304 108.85 3.59653 109.235C3.29902 109.722 3.13859 110.28 3.13219 110.85C3.07341 111.647 3.23504 112.444 3.59937 113.155C3.95805 113.846 4.45856 114.454 5.06817 114.938C5.71013 115.445 6.43388 115.84 7.20834 116.104C7.99581 116.382 8.81836 116.548 9.65201 116.598L16.7982 117.011C16.9573 116.998 17.1173 117.022 17.2656 117.081C17.4138 117.14 17.5463 117.233 17.6525 117.352C17.7586 117.472 17.8355 117.614 17.8771 117.768C17.9188 117.922 17.9239 118.084 17.8922 118.24L17.8294 119.332C17.8427 119.491 17.8188 119.651 17.7596 119.799C17.7004 119.947 17.6075 120.08 17.4883 120.186C17.3691 120.292 17.2268 120.369 17.0727 120.411C16.9186 120.452 16.757 120.457 16.6005 120.426L1.11438 119.529Z" fill="white"/>
<path id="Caminho 1342" d="M15.7666 90.2819C15.016 90.0598 14.3302 89.6597 13.7677 89.1155C13.2051 88.5713 12.7824 87.8991 12.5357 87.1563C12.2945 86.4341 12.158 85.681 12.1305 84.9201C12.0988 84.1209 12.1426 83.3205 12.2614 82.5296C12.3767 81.7502 12.5358 80.9779 12.7379 80.2164C12.9356 79.4773 13.1316 78.8178 13.3258 78.2378L13.6167 77.3683L13.1811 77.2216C12.5884 77.0059 11.9604 76.9031 11.3298 76.9185C10.8323 76.935 10.3463 77.0723 9.91371 77.3184C9.50872 77.5593 9.16342 77.8885 8.9036 78.2815C8.62117 78.7089 8.39753 79.1723 8.23869 79.6592C7.96851 80.4231 7.83718 81.2291 7.85092 82.0392C7.86177 82.6398 7.92276 83.2384 8.03326 83.8289C8.12915 84.5804 7.82769 85.0373 7.12889 85.1997L6.57094 85.3102C5.78245 85.4453 5.32191 85.1551 5.18928 84.4395C5.05222 83.6227 4.98028 82.7962 4.97412 81.968C4.9754 80.7764 5.18252 79.5939 5.58635 78.4728C6.29434 76.3553 7.40536 74.9051 8.9194 74.122C10.4334 73.3389 12.2715 73.3094 14.4336 74.0336L24.0307 77.2439C24.1878 77.2727 24.336 77.3376 24.4636 77.4336C24.5912 77.5296 24.6947 77.6539 24.7659 77.7968C24.8371 77.9397 24.8741 78.0973 24.874 78.2569C24.8738 78.4166 24.8365 78.574 24.7649 78.7167L24.4854 79.553C24.4566 79.71 24.3916 79.8583 24.2956 79.9859C24.1996 80.1135 24.0753 80.2169 23.9324 80.2882C23.7895 80.3594 23.632 80.3965 23.4723 80.3963C23.3127 80.3961 23.1552 80.3587 23.0125 80.2872L22.0089 79.9514L21.5749 79.8062C21.4615 79.7707 21.3527 79.7219 21.2508 79.6608L21.0077 79.5044L20.9854 79.5713C21.5321 80.1157 21.9869 80.7451 22.3322 81.4351C22.6516 82.1038 22.8701 82.8162 22.9805 83.5489C23.1069 84.4682 23.0046 85.4044 22.6827 86.2746C22.4404 87.0015 22.0858 87.686 21.6316 88.303C21.2006 88.8987 20.6587 89.4054 20.0356 89.7957C19.4291 90.1734 18.7511 90.4217 18.0441 90.525C17.2759 90.6268 16.4945 90.5434 15.765 90.2819M16.5936 86.9153C17.2945 87.1369 18.0541 87.0778 18.7123 86.7504C19.4562 86.417 20.0033 85.7263 20.3537 84.6782C20.5892 84.0092 20.6439 83.2897 20.5121 82.5928C20.382 81.923 20.1129 81.288 19.722 80.7289C19.3255 80.1617 18.8409 79.6616 18.2864 79.2475C17.7473 78.8369 17.1452 78.5162 16.5036 78.2978L15.7674 78.0515L15.4769 78.921C15.2754 79.5231 15.0721 80.2234 14.8671 81.0222C14.6645 81.8001 14.5533 82.599 14.5356 83.4026C14.5099 84.1407 14.6519 84.8749 14.951 85.5501C15.1117 85.8821 15.3415 86.1759 15.625 86.4118C15.9085 86.6478 16.2391 86.8203 16.5948 86.918" fill="white"/>
<path id="Caminho 1343" d="M12.0924 66.4872C11.942 66.4334 11.8061 66.3453 11.6957 66.2299C11.5852 66.1145 11.5031 65.975 11.4559 65.8224C11.4087 65.6697 11.3978 65.5082 11.4238 65.3506C11.4499 65.193 11.5123 65.0436 11.6062 64.9143L12.0677 64.0415C12.1215 63.8911 12.2096 63.7553 12.3249 63.6449C12.4403 63.5345 12.5798 63.4525 12.7324 63.4053C12.885 63.3581 13.0464 63.3471 13.204 63.3732C13.3616 63.3992 13.5109 63.4615 13.6402 63.5553L15.4481 64.5112C15.6145 64.5995 15.7677 64.6871 15.9076 64.7741C16.0288 64.8481 16.1454 64.9292 16.2569 65.0172C16.3597 65.0968 16.4689 65.1679 16.5835 65.2295L16.6163 65.1675C16.1731 64.7114 15.785 64.2048 15.4599 63.6582C15.1253 63.1048 14.8708 62.507 14.7038 61.8823C14.5396 61.2693 14.4713 60.6346 14.5012 60.0006C14.5359 59.3505 14.7147 58.7162 15.0247 58.1437C15.3759 57.4784 15.8947 57.3273 16.581 57.6903L17.4538 58.1514C18.1396 58.5139 18.2847 59.0693 17.889 59.8175C17.4959 60.5223 17.3263 61.3298 17.4027 62.1331C17.4873 62.9142 17.7333 63.6692 18.1252 64.3502C18.5527 65.0872 19.1005 65.7474 19.7459 66.3036C20.4085 66.8904 21.1382 67.3968 21.9197 67.8122L27.4059 70.7133C27.5564 70.767 27.6922 70.8551 27.8027 70.9705C27.9131 71.0858 27.9952 71.2253 28.0424 71.3779C28.0896 71.5305 28.1006 71.692 28.0745 71.8496C28.0484 72.0072 27.986 72.1566 27.8921 72.2858L27.3812 73.2522C27.3275 73.4026 27.2394 73.5384 27.1241 73.6489C27.0087 73.7594 26.8692 73.8415 26.7166 73.8887C26.564 73.9359 26.4025 73.9468 26.2449 73.9207C26.0873 73.8946 25.938 73.8322 25.8087 73.7384L12.0924 66.4872Z" fill="white"/>
<path id="Caminho 1344" d="M36.1791 65.9901C36.0931 65.8643 36.0357 65.7212 36.011 65.5708C35.9862 65.4205 35.9946 65.2666 36.0356 65.1199C36.0767 64.9731 36.1494 64.8372 36.2486 64.7215C36.3478 64.6058 36.4711 64.5133 36.6098 64.4504C36.9986 64.2159 37.4567 63.9015 37.9842 63.5071C39.1555 62.5671 40.086 61.3616 40.699 59.9906C40.9684 59.3803 41.1065 58.72 41.1042 58.0529C41.0905 57.387 40.9241 56.7332 40.6179 56.1417C40.2375 55.4372 39.7037 54.8271 39.0559 54.3565L37.8278 53.4083L37.5069 53.1607C37.4083 53.085 37.3174 52.9998 37.2355 52.9063C37.1568 52.8163 37.0783 52.726 36.9996 52.6352L36.9563 52.6907C37.4165 53.6701 37.5828 54.762 37.435 55.834C37.2872 56.906 36.8317 57.9121 36.1236 58.7304C35.4288 59.6608 34.5349 60.4242 33.5074 60.9649C32.555 61.4605 31.5071 61.7454 30.4348 61.8C29.3255 61.8468 28.2179 61.6729 27.1764 61.2883C26.0137 60.8637 24.926 60.2568 23.9539 59.4905C23.0005 58.7684 22.1675 57.8997 21.486 56.9168C20.8686 56.0299 20.4283 55.0322 20.1894 53.9784C19.9663 52.9523 19.9802 51.8889 20.2299 50.869C20.5213 49.7306 21.0532 48.6679 21.7898 47.7523C22.3361 46.9939 23.0331 46.3564 23.8372 45.8799C24.4198 45.5469 25.0498 45.3049 25.7055 45.1624C26.3202 45.0299 26.9565 45.0341 27.5694 45.1745L27.6128 45.1186C27.5626 45.1163 27.515 45.0953 27.4794 45.0599C27.3507 44.9996 27.2307 44.922 27.1229 44.8293L26.3125 44.2045C25.7917 43.8026 25.7682 43.2945 26.242 42.6802L26.7594 42.0105C26.8381 41.8716 26.9481 41.7528 27.0807 41.6638C27.2132 41.5747 27.3646 41.5178 27.523 41.4974C27.6813 41.477 27.8423 41.4939 27.993 41.5465C28.1438 41.5991 28.2802 41.6861 28.3915 41.8006L41.0065 51.5416C42.0558 52.3021 42.9117 53.2987 43.5049 54.4508C43.9846 55.4313 44.2428 56.5053 44.2609 57.5966C44.2702 58.6666 44.0647 59.7276 43.6564 60.7166C43.249 61.7219 42.7066 62.6669 42.0442 63.5257C41.4687 64.2774 40.8211 64.971 40.1106 65.5967C39.4947 66.1475 38.8183 66.6266 38.0944 67.0249C37.4213 67.3963 36.8898 67.2385 36.5 66.5513L36.1791 65.9901ZM34.148 56.4472C34.5192 55.9679 34.8069 55.4295 34.9988 54.8544C35.1932 54.2667 35.2337 53.6389 35.1163 53.0311C34.9699 52.3202 34.678 51.6472 34.259 51.0546C33.689 50.2591 32.9966 49.5591 32.2075 48.9805C31.4393 48.3535 30.5728 47.8577 29.6431 47.5128C28.9646 47.2655 28.2402 47.1698 27.5208 47.2325C26.9 47.3002 26.3062 47.5231 25.7943 47.8807C25.2703 48.2482 24.8058 48.6936 24.4167 49.2016C23.425 50.4855 23.0883 51.7775 23.4065 53.0773C23.7247 54.3771 24.5814 55.5656 25.9766 56.6428C27.5025 57.8217 28.9978 58.4047 30.4624 58.3917C31.1871 58.3846 31.8995 58.2043 32.5404 57.866C33.1813 57.5277 33.7321 57.0411 34.1467 56.4468" fill="white"/>
<path id="Caminho 1345" d="M37.5046 43.1356C36.6805 42.1569 36.0729 41.0148 35.7218 39.7844C35.3886 38.62 35.2837 37.4022 35.4131 36.198C35.5482 34.9938 35.9235 33.8289 36.5168 32.7723C37.7991 30.5249 39.8593 28.8243 42.3089 27.9911C43.4623 27.6064 44.6806 27.4547 45.8931 27.5448C47.1056 27.6348 48.2881 27.9649 49.372 28.5158C50.5135 29.094 51.5199 29.907 52.325 30.9015C53.1584 31.888 53.7739 33.0394 54.1314 34.2803C54.4646 35.4485 54.5648 36.6707 54.4263 37.8775C54.283 39.0884 53.9074 40.2603 53.3202 41.3289C52.0563 43.5916 49.9896 45.2977 47.5285 46.1101C46.3727 46.4838 45.1548 46.627 43.9438 46.5315C42.737 46.4307 41.5612 46.0973 40.4811 45.5497C39.3301 44.964 38.316 44.1414 37.5054 43.136M40.1703 40.9363C40.728 41.6277 41.4185 42.2005 42.2011 42.6206C42.9177 43.0066 43.7018 43.2516 44.5107 43.3423C45.7213 43.4595 46.9394 43.2133 48.0096 42.6353C49.0797 42.0572 49.9534 41.1735 50.5191 40.0968C50.8847 39.3912 51.1113 38.622 51.1865 37.8309C51.2605 37.019 51.1682 36.2005 50.9154 35.4254C50.64 34.5828 50.2044 33.8013 49.6326 33.1239C49.0856 32.4476 48.411 31.8854 47.6472 31.4692C46.936 31.0812 46.154 30.8403 45.3478 30.7609C44.5571 30.6848 43.7592 30.7618 42.9977 30.9874C41.8292 31.3318 40.7916 32.0202 40.0202 32.963C39.2488 33.9058 38.7794 35.0591 38.6732 36.2726C38.5383 37.9634 39.0757 39.6392 40.1687 40.9363" fill="white"/>
<path id="Caminho 1346" d="M62.7311 23.6849C62.7312 24.0542 62.6218 24.4152 62.4166 24.7223C62.2115 25.0294 61.9199 25.2688 61.5787 25.4102C61.2376 25.5515 60.8621 25.5885 60.4999 25.5165C60.1377 25.4445 59.805 25.2666 59.5438 25.0055C59.2827 24.7443 59.1048 24.4116 59.0328 24.0494C58.9608 23.6872 58.9978 23.3117 59.1391 22.9706C59.2805 22.6294 59.5199 22.3378 59.827 22.1327C60.1341 21.9276 60.4951 21.818 60.8644 21.8181C61.3595 21.8181 61.8343 22.0148 62.1844 22.3649C62.5345 22.7149 62.7311 23.1898 62.7311 23.6849Z" fill="white"/>
<path id="Caminho 1347" d="M153.167 200.865C153.167 201.234 153.057 201.595 152.852 201.902C152.647 202.209 152.355 202.448 152.014 202.59C151.673 202.731 151.298 202.768 150.936 202.696C150.574 202.624 150.241 202.446 149.98 202.185C149.719 201.924 149.541 201.591 149.469 201.229C149.397 200.867 149.434 200.492 149.575 200.151C149.717 199.809 149.956 199.518 150.263 199.313C150.57 199.108 150.931 198.998 151.3 198.998C151.795 198.998 152.27 199.195 152.62 199.545C152.97 199.895 153.167 200.37 153.167 200.865Z" fill="white"/>
</g>
<g id="Group 7">
<path id="Caminho 1313" d="M60.8467 89.1743C60.3823 89.8878 60.064 90.6863 59.9102 91.5236C59.7565 92.3609 59.7703 93.2204 59.9508 94.0524C62.3188 104.986 68.3594 114.78 77.0675 121.804C85.7756 128.827 96.6261 132.657 107.814 132.657C119.001 132.656 129.851 128.825 138.559 121.8C147.266 114.776 153.305 104.981 155.672 94.047C156.013 92.3737 155.68 90.6335 154.745 89.2047C153.809 87.7759 152.348 86.774 150.678 86.4168C149.008 86.0596 147.265 86.3761 145.827 87.2973C144.389 88.2185 143.373 89.67 142.999 91.3364C141.253 99.37 136.811 106.564 130.41 111.724C124.01 116.883 116.037 119.697 107.815 119.698C99.5942 119.699 91.6202 116.887 85.2185 111.729C78.8168 106.571 74.3728 99.3777 72.6249 91.3445C72.3576 90.0905 71.7242 88.9439 70.805 88.05C69.8859 87.1561 68.7221 86.555 67.4612 86.3226C66.2002 86.0903 64.8986 86.2372 63.7212 86.7448C62.5438 87.2525 61.5434 88.098 60.8467 89.1743Z" fill="white"/>
<path id="Caminho 1314" d="M57.879 149.787C58.3423 149.979 58.8248 150.121 59.3182 150.21C91.4093 155.764 124.215 155.772 156.309 150.234C158.124 149.905 159.734 148.868 160.784 147.352C161.835 145.836 162.24 143.965 161.911 142.15C161.582 140.335 160.545 138.725 159.029 137.675C157.513 136.624 155.642 136.219 153.827 136.548C139.509 139.137 124.049 140.451 107.875 140.451C91.6474 140.451 76.1455 139.13 61.7996 136.524C60.1106 136.214 58.3666 136.54 56.9034 137.438C55.4402 138.337 54.3613 139.746 53.8745 141.393C53.3877 143.039 53.5274 144.808 54.2668 146.358C55.0061 147.908 56.2928 149.129 57.879 149.787Z" fill="white"/>
<path id="Caminho 1315" d="M99.6258 69.2575C95.8679 70.8472 92.6529 73.4948 90.3722 76.8783C88.8323 79.1501 87.7569 81.704 87.2081 84.3932C86.3662 88.4768 86.7578 92.7186 88.3329 96.5792C89.9081 100.44 92.5957 103.745 96.0541 106.074C98.3263 107.614 100.881 108.689 103.57 109.237C104.964 109.521 106.383 109.664 107.806 109.664H107.816C109.24 109.664 110.659 109.52 112.054 109.237C116.11 108.402 119.83 106.389 122.746 103.449C125.663 100.51 127.647 96.7743 128.449 92.7117C129.251 88.6491 128.836 84.44 127.256 80.6123C125.676 76.7845 123.001 73.5084 119.567 71.1947C117.295 69.6549 114.74 68.58 112.051 68.0319C107.88 67.175 103.548 67.602 99.625 69.2567M107.819 80.4115C109.995 80.4105 112.082 81.274 113.622 82.812C115.161 84.3501 116.026 86.4367 116.027 88.6128C116.028 90.7889 115.165 92.8762 113.627 94.4156C112.089 95.9551 110.002 96.8205 107.826 96.8214H107.815C105.639 96.8227 103.552 95.9593 102.012 94.4215C100.473 92.8836 99.607 90.7972 99.6058 88.6211C99.6045 86.445 100.468 84.3575 102.006 82.8179C103.544 81.2783 105.63 80.4127 107.806 80.4115H107.819Z" fill="white"/>
</g>
</g>
</svg>
