<svg width="75" height="75" viewBox="0 0 75 75" fill="none" xmlns="http://www.w3.org/2000/svg">
<path d="M8.31418 23.536C8.02272 23.9837 7.82299 24.4848 7.72653 25.0102C7.63008 25.5356 7.63882 26.075 7.75226 26.597C11.3361 43.1533 27.724 53.708 44.2849 50.1251C50.0492 48.869 55.3313 45.9836 59.5029 41.812C63.6745 37.6404 66.56 32.3583 67.816 26.594C68.0415 25.5394 67.8389 24.4384 67.2526 23.5332C66.6664 22.628 65.7446 21.9927 64.6899 21.7672C63.6353 21.5416 62.5343 21.7443 61.6291 22.3305C60.7239 22.9168 60.0886 23.8386 59.8631 24.8932C58.7675 29.9342 55.9799 34.4485 51.9636 37.686C47.9473 40.9235 42.9442 42.6892 37.7855 42.6898C32.6268 42.6903 27.6233 40.9257 23.6063 37.6891C19.5893 34.4524 16.8008 29.9387 15.704 24.898C15.5359 24.1114 15.1382 23.3924 14.5614 22.8317C13.9846 22.2711 13.2545 21.8941 12.4635 21.7484C11.6724 21.6027 10.8559 21.6947 10.1172 22.013C9.37847 22.3313 8.75072 22.8614 8.31328 23.5365" fill="#86ECE8"/>
<path d="M6.45178 61.5701C6.7424 61.6907 7.04515 61.7797 7.35479 61.8355C17.4127 63.6029 27.607 64.4788 37.8189 64.4532C48.0076 64.4751 58.1786 63.6042 68.2152 61.8505C68.779 61.7483 69.3173 61.5359 69.7991 61.2257C70.2809 60.9154 70.6969 60.5133 71.0233 60.0423C71.3497 59.5713 71.5801 59.0406 71.7014 58.4805C71.8227 57.9204 71.8325 57.3419 71.7302 56.778C71.628 56.2142 71.4157 55.676 71.1054 55.1942C70.7951 54.7124 70.393 54.2964 69.922 53.97C69.451 53.6436 68.9203 53.4131 68.3602 53.2918C67.8001 53.1705 67.2216 53.1607 66.6578 53.263C57.6733 54.8876 47.9725 55.7118 37.8228 55.7118C27.6406 55.7118 17.9133 54.8829 8.91128 53.248C7.85072 53.0513 6.75489 53.2544 5.83532 53.8182C4.91574 54.382 4.23762 55.2665 3.93187 56.3009C3.62612 57.3353 3.71441 58.4463 4.17969 59.4195C4.64497 60.3926 5.45427 61.1589 6.45134 61.5704" fill="#86ECBD"/>
<path d="M32.6472 11.0391C30.2891 12.0365 28.2717 13.6979 26.8407 15.821C25.8745 17.2467 25.1999 18.8494 24.8557 20.5369C24.1512 23.9655 24.837 27.5336 26.7623 30.4568C28.6875 33.3801 31.6947 35.4192 35.1228 36.1262C35.9978 36.3042 36.8885 36.3939 37.7814 36.3941H37.788C38.6809 36.3939 39.5715 36.304 40.4465 36.126C42.9917 35.6025 45.3257 34.3392 47.1559 32.4946C48.9861 30.65 50.2309 28.3061 50.7344 25.7569C51.2379 23.2076 50.9776 20.5665 49.9861 18.1646C48.9946 15.7627 47.3161 13.707 45.161 12.2552C43.7353 11.2889 42.1324 10.6144 40.4447 10.2706C37.8278 9.73273 35.1093 10.0007 32.6477 11.0391M37.7889 18.0376C39.1484 18.046 40.4494 18.5919 41.408 19.556C42.3666 20.5201 42.9049 21.8242 42.9055 23.1837C42.9061 24.5433 42.3689 25.8479 41.4112 26.8128C40.4535 27.7778 39.1529 28.3248 37.7934 28.3344H37.7873C36.4278 28.3262 35.1266 27.7806 34.1679 26.8167C33.2091 25.8528 32.6705 24.5487 32.6697 23.1892C32.6688 21.8296 33.2058 20.5249 34.1634 19.5598C35.121 18.5946 36.4214 18.0475 37.7809 18.0376H37.7889Z" fill="#86CDEC"/>
</svg>
