<svg width="43" height="42" viewBox="0 0 43 42" fill="none" xmlns="http://www.w3.org/2000/svg">
<path d="M21.5305 41.9191C16.6676 41.9223 11.9534 40.2878 8.18787 37.293C4.4223 34.2982 1.83735 30.1276 0.871682 25.489C-0.0939878 20.8503 0.619109 16.0293 2.88996 11.8442C5.16081 7.65899 8.84953 4.36744 13.3301 2.52807C18.4774 0.411659 24.2776 0.372026 29.4549 2.41789C34.6322 4.46375 38.7624 8.42753 40.9369 13.4372C43.1114 18.4469 43.1521 24.0922 41.0501 29.1311C38.9481 34.17 34.8755 38.1898 29.7282 40.3063C27.135 41.3752 24.3467 41.9237 21.5305 41.9191ZM18.2749 28.0639C22.1777 27.9877 26.0248 28.9737 29.3829 30.9107C29.6803 31.0874 30.0376 31.1419 30.3762 31.0622C30.7149 30.9825 31.0072 30.7752 31.1887 30.4857C31.3703 30.1963 31.4263 29.8486 31.3444 29.519C31.2625 29.1894 31.0495 28.9049 30.7521 28.7282C26.9886 26.5459 22.6737 25.4301 18.2936 25.5064C15.5996 25.5272 12.9166 25.8414 10.2945 26.4432C9.9793 26.5122 9.70136 26.692 9.51393 26.9481C9.3265 27.2043 9.24277 27.5187 9.27877 27.8312C9.31478 28.1436 9.46799 28.4322 9.70904 28.6415C9.9501 28.8509 10.2621 28.9663 10.5851 28.9657C10.6843 28.9657 10.7831 28.9548 10.8798 28.9332C13.3038 28.3761 15.7843 28.0845 18.2749 28.0639ZM17.9456 22.0264C22.6966 21.9609 27.3789 23.1357 31.5053 25.4285C31.8766 25.6503 32.3232 25.7195 32.7468 25.6208C33.1705 25.5222 33.5365 25.2637 33.7644 24.9024C33.9923 24.541 34.0634 24.1064 33.962 23.6941C33.8606 23.2817 33.5951 22.9255 33.2238 22.7037C30.9977 21.3985 28.5844 20.4229 26.0633 19.8088C23.4273 19.1477 20.7157 18.8146 17.9936 18.8175C15.1404 18.8014 12.3004 19.1949 9.56524 19.9853C9.17096 20.1256 8.84683 20.4075 8.65944 20.7731C8.47205 21.1388 8.43562 21.5603 8.55762 21.9513C8.67963 22.3423 8.95082 22.6729 9.31549 22.8753C9.68015 23.0777 10.1106 23.1366 10.5185 23.0397C12.93 22.3486 15.4331 22.0071 17.9469 22.0264H17.9456ZM18.4455 15.5931C23.8485 15.4439 29.2002 16.6481 33.9877 19.09C34.291 19.2657 34.6373 19.3585 34.9903 19.3586C35.3322 19.3578 35.6681 19.2708 35.9652 19.1062C36.2624 18.9416 36.5107 18.7049 36.6861 18.4192C36.9527 17.9821 37.0299 17.4599 36.9009 16.9674C36.7719 16.4749 36.4472 16.0524 35.9982 15.7929C31.5653 13.2303 25.1634 11.7601 18.4375 11.7601C15.0375 11.7233 11.6493 12.1572 8.37472 13.0486C8.12202 13.1174 7.88598 13.2346 7.68045 13.3933C7.47492 13.5521 7.30404 13.7492 7.17783 13.9731C7.05163 14.197 6.97264 14.4432 6.9455 14.6972C6.91836 14.9512 6.94363 15.2079 7.01981 15.4523C7.09599 15.6967 7.22155 15.9238 7.38912 16.1203C7.5567 16.3168 7.76291 16.4788 7.99567 16.5967C8.22842 16.7146 8.48303 16.7861 8.74454 16.8069C9.00606 16.8278 9.26922 16.7976 9.51858 16.7181C12.425 15.934 15.4311 15.5553 18.4469 15.5931H18.4455Z" fill="white"/>
</svg>
