<svg width="43" height="43" viewBox="0 0 43 43" fill="none" xmlns="http://www.w3.org/2000/svg">
<path d="M21.0676 42.0882C16.9012 42.0886 12.8283 40.8864 9.36394 38.6337C5.8996 36.3811 3.19945 33.1791 1.605 29.4327C0.0105415 25.6864 -0.406603 21.5639 0.406321 17.5868C1.21925 13.6097 3.22572 9.95658 6.17199 7.08941C8.11932 5.14858 10.4431 3.60318 13.0085 2.54279C15.574 1.48239 18.3302 0.928083 21.1174 0.911982C23.9045 0.895881 26.6673 1.41831 29.2455 2.44899C31.8237 3.47967 34.1661 4.99811 36.137 6.91631C38.1079 8.83451 39.668 11.1143 40.727 13.6237C41.786 16.133 42.3228 18.8219 42.3062 21.5346C42.2897 24.2473 41.7201 26.9298 40.6306 29.4267C39.5411 31.9237 37.9533 34.1853 35.9592 36.0806C34.0082 37.9903 31.6875 39.5045 29.1314 40.5357C26.5753 41.5669 23.8345 42.0946 21.0676 42.0882ZM21.1169 10.2983C18.3225 10.2924 15.6211 11.2747 13.5153 13.0625C11.4094 14.8502 10.0425 17.3216 9.66891 20.0169C9.33901 22.4594 9.84504 24.9397 11.1087 27.0743L9.46893 32.8756L15.5896 31.3186C17.122 32.1304 18.8235 32.5939 20.5663 32.6744C22.3091 32.7549 24.048 32.4503 25.6525 31.7834C27.2571 31.1164 28.6857 30.1046 29.8311 28.8236C30.9765 27.5426 31.8091 26.0259 32.2663 24.3871C32.7197 22.7255 32.7745 20.9848 32.4263 19.2994C32.0782 17.614 31.3364 16.029 30.2584 14.6672C29.1805 13.3053 27.7951 12.203 26.2095 11.4454C24.6239 10.6879 22.8806 10.2954 21.1142 10.2983H21.1169ZM21.1169 30.7879C19.3958 30.7879 17.7061 30.3399 16.2228 29.4903L15.8722 29.2879L12.2393 30.2118L13.2125 26.7771L12.9845 26.4242C11.7368 24.4959 11.2617 22.1882 11.65 19.9409C12.0382 17.6936 13.2625 15.664 15.0896 14.2389C16.8018 12.9062 18.9286 12.1796 21.1209 12.1784C21.2702 12.1784 21.4209 12.1784 21.5688 12.1888C23.9103 12.2906 26.1322 13.2239 27.8145 14.8122C29.4968 16.4005 30.5228 18.5337 30.6984 20.8084C30.8642 23.0834 30.1663 25.3386 28.7371 27.146C27.3078 28.9534 25.2467 30.1875 22.9447 30.614C22.3434 30.7291 21.7323 30.7882 21.1196 30.7905L21.1169 30.7879ZM24.1112 26.8563H24.1339C24.3606 26.8562 24.5869 26.8397 24.8111 26.807C25.2133 26.7293 25.5946 26.5712 25.9307 26.3427C26.2669 26.1142 26.5507 25.8203 26.7642 25.4796C26.9533 25.0606 27.0117 24.5968 26.9322 24.1457C26.8235 24.0295 26.6857 23.9428 26.5323 23.894L26.3763 23.8187C26.1603 23.7136 24.6845 23.0078 24.4045 22.9104C24.3064 22.8695 24.2018 22.8449 24.0952 22.8378C24.0245 22.8401 23.9558 22.8612 23.8966 22.8988C23.8371 22.936 23.7888 22.9879 23.7566 23.0493C23.5766 23.3088 23.0807 23.8823 22.8434 24.147C22.8084 24.1941 22.7628 24.2327 22.71 24.2599C22.6559 24.2869 22.5962 24.3016 22.5354 24.3027C22.4254 24.2973 22.3181 24.2671 22.2221 24.2145C22.1674 24.1885 22.0888 24.1574 22.0315 24.1314C21.25 23.8162 20.5289 23.3749 19.8984 22.8261C19.2695 22.2611 18.7303 21.6082 18.2986 20.8889C18.1266 20.6047 18.2852 20.4529 18.4319 20.3192C18.5159 20.2388 18.6145 20.1246 18.7145 20.0052L18.7718 19.9378L18.8625 19.8327C18.964 19.7154 19.0471 19.5843 19.1091 19.4434L19.1505 19.3655C19.1891 19.2885 19.207 19.2033 19.2025 19.1177C19.1981 19.032 19.172 18.9486 19.1265 18.8751C19.0785 18.779 18.7905 18.1069 18.5599 17.5593L18.3706 17.1117C18.3199 16.991 18.2746 16.8859 18.2372 16.8003C18.0479 16.3578 17.8586 16.3215 17.68 16.3215H17.5893C17.412 16.3111 17.212 16.3111 17.036 16.3111C16.8897 16.3143 16.7457 16.3474 16.6134 16.4084C16.48 16.4696 16.3618 16.5581 16.2668 16.6679L16.2361 16.6991L16.2108 16.725C15.9 17.0199 15.6549 17.3739 15.4909 17.765C15.3269 18.1562 15.2474 18.576 15.2576 18.9983C15.3458 20.0548 15.7573 21.0613 16.4388 21.888L16.4894 21.9619C17.7107 23.7396 19.3925 25.1719 21.3649 26.1141C21.9023 26.3387 22.4514 26.5358 23.01 26.7045C23.3641 26.8136 23.7332 26.8691 24.1046 26.8693L24.1112 26.8563Z" fill="white"/>
</svg>
