<svg width="24" height="23" viewBox="0 0 24 23" fill="none" xmlns="http://www.w3.org/2000/svg">
<g id="Subtract">
<path d="M14.6649 16.5581H14.6422L14.6356 16.571C14.2642 16.5709 13.8951 16.5153 13.541 16.4063C12.9824 16.2376 12.4333 16.0405 11.8959 15.8159C9.92353 14.8736 8.24172 13.4413 7.02045 11.6637L6.96979 11.5897C6.28827 10.763 5.87685 9.75654 5.7886 8.7001C5.77845 8.27777 5.85786 7.85793 6.02187 7.46679C6.18587 7.07566 6.43096 6.72163 6.74182 6.42679L6.76715 6.40084L6.79781 6.3697C6.89277 6.25988 7.01102 6.17135 7.14444 6.11019C7.27671 6.0492 7.42072 6.01604 7.56705 6.01288C7.74301 6.01288 7.94304 6.01288 8.12032 6.02325H8.21098C8.38962 6.02325 8.57893 6.05959 8.76825 6.50205C8.80557 6.58769 8.8509 6.69279 8.90157 6.81346L9.09088 7.26112C9.32152 7.80868 9.60948 8.48081 9.65747 8.57683C9.70304 8.65035 9.72915 8.73372 9.73347 8.81948C9.73797 8.90504 9.72008 8.99031 9.68147 9.06731L9.64014 9.14516C9.57807 9.28602 9.49496 9.41719 9.39351 9.53443L9.30285 9.63953L9.24552 9.707C9.14553 9.82638 9.04688 9.94056 8.96289 10.021C8.81624 10.1547 8.65759 10.3065 8.82957 10.5906C9.2613 11.3099 9.80046 11.9628 10.4294 12.5279C11.0599 13.0767 11.7811 13.518 12.5625 13.8332C12.5875 13.8445 12.6165 13.8568 12.6458 13.8693C12.6838 13.8853 12.7223 13.9016 12.7531 13.9163C12.8491 13.9689 12.9564 13.9991 13.0664 14.0045C13.1272 14.0033 13.1869 13.9887 13.2411 13.9617C13.2938 13.9344 13.3394 13.8958 13.3744 13.8488C13.6117 13.5841 14.1076 13.0106 14.2876 12.7511C14.3198 12.6897 14.3681 12.6378 14.4276 12.6005C14.4868 12.563 14.5555 12.5419 14.6262 12.5396C14.7328 12.5467 14.8374 12.5712 14.9355 12.6122C15.2155 12.7095 16.6913 13.4154 16.9073 13.5205L17.0633 13.5958C17.2167 13.6446 17.3545 13.7313 17.4632 13.8475C17.5427 14.2985 17.4843 14.7624 17.2952 15.1814C17.0818 15.5221 16.7979 15.816 16.4618 16.0445C16.1256 16.2729 15.7443 16.431 15.3421 16.5088C15.118 16.5414 14.8916 16.5579 14.6649 16.5581Z" fill="black"/>
<path fill-rule="evenodd" clip-rule="evenodd" d="M4.04627 2.76423C6.15183 0.976737 8.85279 -0.00556151 11.6467 2.36869e-05L11.6452 2.6071e-05H11.6479L11.6467 2.36869e-05C13.4126 -0.00264565 15.1554 0.389857 16.7405 1.14721C18.3261 1.90477 19.7115 3.0071 20.7894 4.36896C21.8674 5.73082 22.6092 7.31572 22.9573 9.00113C23.3055 10.6865 23.2507 12.4273 22.7973 14.0888C22.3401 15.7276 21.5076 17.2444 20.3621 18.5254C19.2167 19.8063 17.7881 20.8182 16.1836 21.4851C14.579 22.1521 12.8401 22.4567 11.0973 22.3762C9.35447 22.2957 7.65302 21.8322 6.12056 21.0203L-6.10352e-05 22.5774L1.63975 16.7761C0.376041 14.6415 -0.129982 12.1612 0.199916 9.71868C0.573527 7.02339 1.94042 4.55197 4.04627 2.76423ZM6.75382 19.1921C8.23707 20.0417 9.92684 20.4897 11.6479 20.4896L11.6506 20.4922C12.2633 20.4899 12.8745 20.4308 13.4757 20.3158C15.7777 19.8892 17.8388 18.6552 19.2681 16.8478C20.6973 15.0403 21.3952 12.7852 21.2295 10.5102C21.0538 8.23547 20.0278 6.10226 18.3455 4.51395C16.6632 2.92564 14.4413 1.99234 12.0999 1.89056C11.9519 1.88018 11.8012 1.88018 11.6519 1.88018C9.45956 1.8814 7.33277 2.60799 5.62062 3.94069C3.79355 5.36578 2.5692 7.39542 2.18097 9.64269C1.79274 11.89 2.26778 14.1977 3.51553 16.126L3.7435 16.4789L2.77028 19.9135L6.40319 18.9897L6.75382 19.1921Z" fill="black"/>
</g>
</svg>
