<svg width="43" height="42" viewBox="0 0 43 42" fill="none" xmlns="http://www.w3.org/2000/svg">
<path d="M21.385 41.9191C16.5221 41.9223 11.8079 40.2878 8.04236 37.293C4.27679 34.2982 1.69184 30.1276 0.726174 25.489C-0.239496 20.8503 0.473601 16.0293 2.74445 11.8442C5.0153 7.65899 8.70402 4.36744 13.1846 2.52807C18.3319 0.411659 24.1321 0.372026 29.3094 2.41789C34.4867 4.46375 38.6169 8.42753 40.7914 13.4372C42.9659 18.4469 43.0066 24.0922 40.9046 29.1311C38.8026 34.17 34.73 38.1898 29.5827 40.3063C26.9895 41.3752 24.2012 41.9237 21.385 41.9191ZM21.385 13.9024C18.4517 13.8676 15.5192 14.0241 12.6074 14.3708C12.1266 14.5034 11.6901 14.7566 11.3415 15.105C10.9929 15.4534 10.7444 15.8848 10.6209 16.3561C10.2974 18.1401 10.1399 19.9488 10.1503 21.7604C10.1399 23.5719 10.2974 25.3807 10.6209 27.1647C10.7443 27.636 10.9927 28.0674 11.3414 28.4158C11.69 28.7643 12.1266 29.0174 12.6074 29.1499C15.5192 29.4967 18.4517 29.6531 21.385 29.6183C24.3183 29.6531 27.2508 29.4967 30.1626 29.1499C30.6432 29.0172 31.0795 28.764 31.4279 28.4156C31.7763 28.0672 32.0245 27.6358 32.1477 27.1647C32.4713 25.3807 32.6288 23.5719 32.6184 21.7604C32.6288 19.9488 32.4713 18.1401 32.1477 16.3561C32.0244 15.885 31.7761 15.4537 31.4277 15.1053C31.0794 14.7569 30.6431 14.5036 30.1626 14.3708C27.2509 14.0232 24.3184 13.8659 21.385 13.8998V13.9024Z" fill="white"/>
<path d="M19.7051 25.5155V18.6826L25.3218 22.0991L19.7051 25.5155Z" fill="white"/>
</svg>
